# Blender v2.80 (sub 46) OBJ File: 'Items.blend'
# www.blender.org
mtllib Box.mtl
o Cube_Cube.002
v -0.300000 -1.000000 0.800000
v -0.300000 1.000000 0.800000
v -0.300000 -1.000000 -0.800000
v -0.300000 1.000000 -0.800000
v 0.300000 -1.000000 0.800000
v 0.300000 1.000000 0.800000
v 0.300000 -1.000000 -0.800000
v 0.300000 1.000000 -0.800000
vt 0.375000 0.500000
vt 0.625000 0.500000
vt 0.625000 0.750000
vt 0.375000 0.750000
vt 0.375000 0.000000
vt 0.625000 0.000000
vt 0.625000 0.250000
vt 0.375000 0.250000
vt 0.625000 1.000000
vt 0.375000 1.000000
vt 0.125000 0.500000
vt 0.125000 0.750000
vt 0.875000 0.500000
vt 0.875000 0.750000
vn 1.0000 0.0000 0.0000
vn -1.0000 0.0000 0.0000
vn 0.0000 0.0000 -1.0000
vn 0.0000 0.0000 1.0000
vn 0.0000 -1.0000 0.0000
vn 0.0000 1.0000 0.0000
g Cube_Cube.002_Front
usemtl Front
s off
f 7/1/1 8/2/1 6/3/1 5/4/1
g Cube_Cube.002_Sides
usemtl Sides
f 1/5/2 2/6/2 4/7/2 3/8/2
f 3/8/3 4/7/3 8/2/3 7/1/3
f 5/4/4 6/3/4 2/9/4 1/10/4
f 3/11/5 7/1/5 5/4/5 1/12/5
f 8/2/6 4/13/6 2/14/6 6/3/6
