# Blender v2.80 (sub 46) OBJ File: 'Log.blend'
# www.blender.org
mtllib Log.mtl
o Cylinder
v 0.000000 -1.000000 -0.700000
v 0.000000 1.000000 -0.700000
v 0.547282 -1.000000 -0.436443
v 0.547282 1.000000 -0.436443
v 0.682450 -1.000000 0.155765
v 0.682450 1.000000 0.155765
v 0.303719 -1.000000 0.630678
v 0.303719 1.000000 0.630678
v -0.303719 -1.000000 0.630678
v -0.303719 1.000000 0.630678
v -0.682450 -1.000000 0.155765
v -0.682450 1.000000 0.155765
v -0.547282 -1.000000 -0.436443
v -0.547282 1.000000 -0.436443
vt 1.000000 0.500000
vt 1.000000 1.000000
vt 0.857143 1.000000
vt 0.857143 0.500000
vt 0.714286 1.000000
vt 0.714286 0.500000
vt 0.571429 1.000000
vt 0.571429 0.500000
vt 0.428571 1.000000
vt 0.428571 0.500000
vt 0.285714 1.000000
vt 0.285714 0.500000
vt 0.142857 1.000000
vt 0.142857 0.500000
vt 0.000000 1.000000
vt 0.000000 0.500000
vt 0.437640 0.399638
vt 0.250000 0.490000
vt 0.062360 0.399638
vt 0.016017 0.196595
vt 0.145868 0.033767
vt 0.354132 0.033767
vt 0.483983 0.196595
vt 0.750000 0.490000
vt 0.937640 0.399638
vt 0.983983 0.196595
vt 0.854132 0.033767
vt 0.645868 0.033767
vt 0.516017 0.196595
vt 0.562360 0.399638
vn 0.4339 0.0000 -0.9010
vn 0.9749 0.0000 -0.2225
vn 0.7818 0.0000 0.6235
vn -0.0000 0.0000 1.0000
vn -0.7818 0.0000 0.6235
vn -0.9749 0.0000 -0.2225
vn -0.4339 0.0000 -0.9010
vn 0.0000 1.0000 -0.0000
vn 0.0000 -1.0000 0.0000
g Cylinder_Cylinder_Dark
usemtl Dark
s off
f 1/1/1 2/2/1 4/3/1 3/4/1
f 3/4/2 4/3/2 6/5/2 5/6/2
f 5/6/3 6/5/3 8/7/3 7/8/3
f 7/8/4 8/7/4 10/9/4 9/10/4
f 9/10/5 10/9/5 12/11/5 11/12/5
f 11/12/6 12/11/6 14/13/6 13/14/6
f 13/14/7 14/13/7 2/15/7 1/16/7
g Cylinder_Cylinder_Lighter
usemtl Lighter
f 4/17/8 2/18/8 14/19/8 12/20/8 10/21/8 8/22/8 6/23/8
f 1/24/9 3/25/9 5/26/9 7/27/9 9/28/9 11/29/9 13/30/9
