# Blender v2.80 (sub 46) OBJ File: 'Building Assets.blend'
# www.blender.org
mtllib Small Long Table.mtl
o Leg.007_Cylinder.007
v -0.958610 0.000146 0.602905
v -0.958610 2.439854 0.602905
v -0.831222 0.000146 0.676452
v -0.831222 2.439854 0.676452
v -0.831222 0.000146 0.823548
v -0.831222 2.439854 0.823548
v -0.958610 0.000146 0.897095
v -0.958610 2.439854 0.897095
v -1.085998 0.000146 0.823548
v -1.085998 2.439854 0.823548
v -1.085998 0.000146 0.676452
v -1.085998 2.439854 0.676452
vt 1.000000 0.500000
vt 1.000000 1.000000
vt 0.833333 1.000000
vt 0.833333 0.500000
vt 0.666667 1.000000
vt 0.666667 0.500000
vt 0.500000 1.000000
vt 0.500000 0.500000
vt 0.333333 1.000000
vt 0.333333 0.500000
vt 0.166667 1.000000
vt 0.166667 0.500000
vt -0.000000 1.000000
vt -0.000000 0.500000
vt 0.750000 0.490000
vt 0.957846 0.370000
vt 0.957846 0.130000
vt 0.750000 0.010000
vt 0.542154 0.130000
vt 0.542154 0.370000
vn 0.5000 0.0000 -0.8660
vn 1.0000 0.0000 0.0000
vn 0.5000 0.0000 0.8660
vn -0.5000 0.0000 0.8660
vn -1.0000 0.0000 0.0000
vn -0.5000 0.0000 -0.8660
vn 0.0000 -1.0000 0.0000
g Leg.007_Cylinder.007_Table_Leg
usemtl Table_Leg
s off
f 1/1/1 2/2/1 4/3/1 3/4/1
f 3/4/2 4/3/2 6/5/2 5/6/2
f 5/6/3 6/5/3 8/7/3 7/8/3
f 7/8/4 8/7/4 10/9/4 9/10/4
f 9/10/5 10/9/5 12/11/5 11/12/5
f 11/12/6 12/11/6 2/13/6 1/14/6
f 1/15/7 3/16/7 5/17/7 7/18/7 9/19/7 11/20/7
o Leg.006_Cylinder.006
v 5.998312 0.000146 0.602905
v 5.998312 2.439854 0.602905
v 6.125700 0.000146 0.676452
v 6.125700 2.439854 0.676452
v 6.125700 0.000146 0.823548
v 6.125700 2.439854 0.823548
v 5.998312 0.000146 0.897095
v 5.998312 2.439854 0.897095
v 5.870924 0.000146 0.823548
v 5.870924 2.439854 0.823548
v 5.870924 0.000146 0.676452
v 5.870924 2.439854 0.676452
vt 1.000000 0.500000
vt 1.000000 1.000000
vt 0.833333 1.000000
vt 0.833333 0.500000
vt 0.666667 1.000000
vt 0.666667 0.500000
vt 0.500000 1.000000
vt 0.500000 0.500000
vt 0.333333 1.000000
vt 0.333333 0.500000
vt 0.166667 1.000000
vt 0.166667 0.500000
vt -0.000000 1.000000
vt -0.000000 0.500000
vt 0.750000 0.490000
vt 0.957846 0.370000
vt 0.957846 0.130000
vt 0.750000 0.010000
vt 0.542154 0.130000
vt 0.542154 0.370000
vn 0.5000 0.0000 -0.8660
vn 1.0000 0.0000 0.0000
vn 0.5000 0.0000 0.8660
vn -0.5000 0.0000 0.8660
vn -1.0000 0.0000 0.0000
vn -0.5000 0.0000 -0.8660
vn 0.0000 -1.0000 0.0000
g Leg.006_Cylinder.006
usemtl (null)
s off
f 13/21/8 14/22/8 16/23/8 15/24/8
f 15/24/9 16/23/9 18/25/9 17/26/9
f 17/26/10 18/25/10 20/27/10 19/28/10
f 19/28/11 20/27/11 22/29/11 21/30/11
f 21/30/12 22/29/12 24/31/12 23/32/12
f 23/32/13 24/31/13 14/33/13 13/34/13
f 13/35/14 15/36/14 17/37/14 19/38/14 21/39/14 23/40/14
o Leg.005_Cylinder.005
v 5.998312 0.000146 -3.897095
v 5.998312 2.439854 -3.897095
v 6.125700 0.000146 -3.823548
v 6.125700 2.439854 -3.823548
v 6.125700 0.000146 -3.676452
v 6.125700 2.439854 -3.676452
v 5.998312 0.000146 -3.602905
v 5.998312 2.439854 -3.602905
v 5.870924 0.000146 -3.676452
v 5.870924 2.439854 -3.676452
v 5.870924 0.000146 -3.823548
v 5.870924 2.439854 -3.823548
vt 1.000000 0.500000
vt 1.000000 1.000000
vt 0.833333 1.000000
vt 0.833333 0.500000
vt 0.666667 1.000000
vt 0.666667 0.500000
vt 0.500000 1.000000
vt 0.500000 0.500000
vt 0.333333 1.000000
vt 0.333333 0.500000
vt 0.166667 1.000000
vt 0.166667 0.500000
vt -0.000000 1.000000
vt -0.000000 0.500000
vt 0.750000 0.490000
vt 0.957846 0.370000
vt 0.957846 0.130000
vt 0.750000 0.010000
vt 0.542154 0.130000
vt 0.542154 0.370000
vn 0.5000 0.0000 -0.8660
vn 1.0000 0.0000 0.0000
vn 0.5000 0.0000 0.8660
vn -0.5000 0.0000 0.8660
vn -1.0000 0.0000 0.0000
vn -0.5000 0.0000 -0.8660
vn 0.0000 -1.0000 0.0000
g Leg.005_Cylinder.005_Table_Leg
usemtl Table_Leg
s off
f 25/41/15 26/42/15 28/43/15 27/44/15
f 27/44/16 28/43/16 30/45/16 29/46/16
f 29/46/17 30/45/17 32/47/17 31/48/17
f 31/48/18 32/47/18 34/49/18 33/50/18
f 33/50/19 34/49/19 36/51/19 35/52/19
f 35/52/20 36/51/20 26/53/20 25/54/20
f 25/55/21 27/56/21 29/57/21 31/58/21 33/59/21 35/60/21
o Leg.004_Cylinder.004
v -0.958610 0.000146 -3.897095
v -0.958610 2.439854 -3.897095
v -0.831222 0.000146 -3.823548
v -0.831222 2.439854 -3.823548
v -0.831222 0.000146 -3.676452
v -0.831222 2.439854 -3.676452
v -0.958610 0.000146 -3.602905
v -0.958610 2.439854 -3.602905
v -1.085998 0.000146 -3.676452
v -1.085998 2.439854 -3.676452
v -1.085998 0.000146 -3.823548
v -1.085998 2.439854 -3.823548
vt 1.000000 0.500000
vt 1.000000 1.000000
vt 0.833333 1.000000
vt 0.833333 0.500000
vt 0.666667 1.000000
vt 0.666667 0.500000
vt 0.500000 1.000000
vt 0.500000 0.500000
vt 0.333333 1.000000
vt 0.333333 0.500000
vt 0.166667 1.000000
vt 0.166667 0.500000
vt -0.000000 1.000000
vt -0.000000 0.500000
vt 0.750000 0.490000
vt 0.957846 0.370000
vt 0.957846 0.130000
vt 0.750000 0.010000
vt 0.542154 0.130000
vt 0.542154 0.370000
vn 0.5000 0.0000 -0.8660
vn 1.0000 0.0000 0.0000
vn 0.5000 0.0000 0.8660
vn -0.5000 0.0000 0.8660
vn -1.0000 0.0000 0.0000
vn -0.5000 0.0000 -0.8660
vn 0.0000 -1.0000 0.0000
g Leg.004_Cylinder.004
usemtl (null)
s off
f 37/61/22 38/62/22 40/63/22 39/64/22
f 39/64/23 40/63/23 42/65/23 41/66/23
f 41/66/24 42/65/24 44/67/24 43/68/24
f 43/68/25 44/67/25 46/69/25 45/70/25
f 45/70/26 46/69/26 48/71/26 47/72/26
f 47/72/27 48/71/27 38/73/27 37/74/27
f 37/75/28 39/76/28 41/77/28 43/78/28 45/79/28 47/80/28
o Surface.001_Cube.000
v -1.258610 2.270000 1.050000
v -1.258610 2.570000 1.050000
v -1.258610 2.270000 -4.050000
v -1.258610 2.570000 -4.050000
v 6.281452 2.270000 1.050000
v 6.281452 2.570000 1.050000
v 6.281452 2.270000 -4.050000
v 6.281452 2.570000 -4.050000
vt 0.375000 0.000000
vt 0.625000 0.000000
vt 0.625000 0.250000
vt 0.375000 0.250000
vt 0.625000 0.500000
vt 0.375000 0.500000
vt 0.625000 0.750000
vt 0.375000 0.750000
vt 0.625000 1.000000
vt 0.375000 1.000000
vt 0.125000 0.500000
vt 0.125000 0.750000
vt 0.875000 0.500000
vt 0.875000 0.750000
vn -1.0000 0.0000 0.0000
vn 0.0000 0.0000 -1.0000
vn 1.0000 0.0000 0.0000
vn 0.0000 0.0000 1.0000
vn 0.0000 -1.0000 0.0000
vn 0.0000 1.0000 0.0000
g Surface.001_Cube.000_Table
usemtl Table
s off
f 49/81/29 50/82/29 52/83/29 51/84/29
f 51/84/30 52/83/30 56/85/30 55/86/30
f 55/86/31 56/85/31 54/87/31 53/88/31
f 53/88/32 54/87/32 50/89/32 49/90/32
f 51/91/33 55/86/33 53/88/33 49/92/33
f 56/85/34 52/93/34 50/94/34 54/87/34
