# Blender v2.80 (sub 47) OBJ File: 'Roads.blend'
# www.blender.org
mtllib A into SS.mtl
o Ground_Ground_Plane.003
v -5.676032 0.000000 51.581455
v -5.676032 0.000000 -52.379395
v -25.676033 0.000000 51.581455
v -25.676033 0.000000 -52.379395
v -27.676033 0.000000 51.581455
v -27.676033 0.000000 -52.379395
v -47.676033 0.000000 51.581455
v -47.676033 0.000000 -52.379395
v -52.676033 0.000000 51.581455
v -52.676033 0.000000 -52.379395
v -5.676032 0.000000 -49.988594
v -25.676033 0.000000 -49.988594
v -27.676033 0.000000 -49.988594
v -47.676033 0.000000 -49.988594
v -52.676033 0.000000 -49.988594
v -5.676032 0.000000 50.054367
v -25.676033 0.000000 50.054367
v -27.676033 0.000000 50.054367
v -47.676033 0.000000 50.054367
v -52.676033 0.000000 50.054367
v 5.676032 0.000000 51.581455
v 5.676032 0.000000 -52.379395
v 0.000000 0.000000 51.581455
v 0.000000 0.000000 -52.379395
v 25.676033 0.000000 51.581455
v 25.676033 0.000000 -52.379395
v 27.676033 0.000000 51.581455
v 27.676033 0.000000 -52.379395
v 49.944218 0.000000 51.581455
v 49.944218 0.000000 -52.379395
v 52.695847 0.000000 51.581455
v 52.695847 0.000000 -52.379395
v 5.676032 0.000000 -49.988594
v 0.000000 0.000000 -49.988594
v 25.676033 0.000000 -49.988594
v 27.676033 0.000000 -49.988594
v 49.944218 0.000000 -49.988594
v 52.695847 0.000000 -49.988594
v 5.676032 0.000000 50.054367
v 0.000000 0.000000 50.054367
v 25.676033 0.000000 50.054367
v 27.676033 0.000000 50.054367
v 49.944218 0.000000 50.054367
v 52.695847 0.000000 50.054367
v -52.676033 0.000000 0.688699
v -47.676033 0.000000 0.688699
v -27.676033 0.000000 0.688699
v -25.676033 0.000000 0.688699
v -5.676032 0.000000 0.688699
v 0.000000 0.000000 0.688699
v 5.676032 0.000000 0.688699
v 25.676033 0.000000 0.688699
v 27.676033 0.000000 0.688699
v 52.695847 0.000000 0.688699
v 49.944218 0.000000 0.688699
v -52.676033 0.000000 -0.652499
v -47.676033 0.000000 -0.652499
v -27.676033 0.000000 -0.652499
v -25.676033 0.000000 -0.652499
v -5.676032 0.000000 -0.652499
v 0.000000 0.000000 -0.652499
v 5.676032 0.000000 -0.652499
v 25.676033 0.000000 -0.652499
v 27.676033 0.000000 -0.652499
v 52.695847 0.000000 -0.652499
v 49.944218 0.000000 -0.652499
v -52.676033 0.000000 -20.633615
v -47.676033 0.000000 -20.633615
v -27.676033 0.000000 -20.633615
v -25.676033 0.000000 -20.633615
v -5.676032 0.000000 -20.633615
v 0.000000 0.000000 -20.633615
v 5.676032 0.000000 -20.633615
v 25.676033 0.000000 -20.633615
v 27.676033 0.000000 -20.633615
v 52.695847 0.000000 -20.633615
v 49.944218 0.000000 -20.633615
v -52.676033 0.000000 20.681797
v -47.676033 0.000000 20.681797
v -27.676033 0.000000 20.681797
v -25.676033 0.000000 20.681797
v -5.676032 0.000000 20.681797
v 0.000000 0.000000 20.681797
v 5.676032 0.000000 20.681797
v 25.676033 0.000000 20.681797
v 27.676033 0.000000 20.681797
v 52.695847 0.000000 20.681797
v 49.944218 0.000000 20.681797
v 47.650597 0.000000 51.581455
v 47.650597 0.000000 -52.379395
v 47.650597 0.000000 -49.988594
v 47.650597 0.000000 50.054367
v 47.650597 0.000000 0.688699
v 47.650597 0.000000 -0.652499
v 47.650597 0.000000 -20.633615
v 47.650597 0.000000 20.681797
v -49.983727 0.000000 51.581455
v -49.983727 0.000000 -52.379395
v -49.983727 0.000000 -49.988594
v -49.983727 0.000000 50.054367
v -49.983727 0.000000 0.688699
v -49.983727 0.000000 -0.652499
v -49.983727 0.000000 -20.633615
v -49.983727 0.000000 20.681797
vt 0.333333 0.000000
vt 0.333333 0.024375
vt 0.333333 0.024375
vt 0.333333 0.000000
vt 0.333333 0.000000
vt 0.333333 0.024375
vt 0.333333 0.024375
vt 0.333333 0.000000
vt 0.333333 0.975000
vt 0.333333 0.975000
vt 0.333333 1.000000
vt 0.333333 1.000000
vt 0.333333 0.303478
vt 0.333333 0.024375
vt 0.333333 0.303478
vt 0.333333 0.303478
vt 0.333333 0.303478
vt 0.333333 0.303478
vt 0.500000 0.024375
vt 0.500000 0.303478
vt 0.333333 0.303478
vt 0.333333 0.024375
vt 0.333333 0.303478
vt 0.333333 0.024375
vt 0.333333 0.303478
vt 0.333333 0.024375
vt 0.333333 0.303478
vt 0.333333 0.024375
vt 0.333333 0.506200
vt 0.333333 0.506200
vt 0.333333 0.493456
vt 0.333333 0.493456
vt 0.333333 0.506200
vt 0.333333 0.493456
vt 0.333333 0.506200
vt 0.333333 0.493456
vt 0.500000 0.506200
vt 0.500000 0.493456
vt 0.333333 0.506200
vt 0.333333 0.493456
vt 0.333333 0.506200
vt 0.333333 0.493456
vt 0.333333 0.506200
vt 0.333333 0.493456
vt 0.333333 0.506200
vt 0.333333 0.493456
vt 0.333333 0.506200
vt 0.333333 0.493456
vt 0.333333 0.696064
vt 0.333333 0.696064
vt 0.333333 0.696064
vt 0.333333 0.696064
vt 0.333333 0.696064
vt 0.500000 0.696064
vt 0.333333 0.696064
vt 0.333333 0.696064
vt 0.333333 0.696064
vt 0.333333 0.696064
vt 0.333333 0.975000
vt 0.333333 0.975000
vt 0.500000 0.975000
vt 0.333333 0.975000
vt 0.333333 0.975000
vt 0.333333 0.975000
vt 0.333333 0.975000
vt 0.333333 0.975000
vt 0.333333 0.493456
vt 0.333333 0.493456
vt 0.333333 0.303478
vt 0.333333 0.303478
vt 0.333333 0.975000
vt 0.333333 0.696064
vt 0.333333 0.506200
vt 0.333333 0.024375
vt 0.333333 1.000000
vt 0.333333 1.000000
vt 0.333333 0.696064
vt 0.333333 0.506200
vt 0.333333 1.000000
vt 0.333333 1.000000
vt 0.333333 1.000000
vt 0.333333 1.000000
vt 0.333333 0.000000
vt 0.333333 0.000000
vt 0.333333 0.000000
vt 0.333333 0.506200
vt 0.333333 0.696064
vt 0.333333 0.000000
vt 0.333333 0.493456
vt 0.333333 0.303478
vt 0.500000 1.000000
vt 0.333333 1.000000
vt 0.333333 1.000000
vt 0.333333 0.975000
vt 0.500000 0.000000
vt 0.333333 0.000000
vt 0.333333 0.024375
vt 0.333333 0.000000
vt 0.333333 1.000000
vt 0.333333 0.975000
vt 0.333333 1.000000
vt 0.333333 0.000000
vt 0.333333 0.000000
vt 0.333333 0.024375
vn 0.0000 1.0000 0.0000
g Ground_Ground_Plane.003_Road.002
usemtl Road.002
s 1
f 1/1/1 16/2/1 17/3/1 3/4/1
f 5/5/1 18/6/1 19/7/1 7/8/1
f 33/9/1 35/10/1 26/11/1 22/12/1
f 104/13/1 100/14/1 19/7/1 79/15/1
f 79/15/1 19/7/1 18/6/1 80/16/1
f 80/16/1 18/6/1 17/3/1 81/17/1
f 81/17/1 17/3/1 16/2/1 82/18/1
f 82/18/1 16/2/1 40/19/1 83/20/1
f 84/21/1 83/20/1 40/19/1 39/22/1
f 85/23/1 84/21/1 39/22/1 41/24/1
f 86/25/1 85/23/1 41/24/1 42/26/1
f 96/27/1 86/25/1 42/26/1 92/28/1
f 94/29/1 64/30/1 53/31/1 93/32/1
f 64/30/1 63/33/1 52/34/1 53/31/1
f 63/33/1 62/35/1 51/36/1 52/34/1
f 62/35/1 61/37/1 50/38/1 51/36/1
f 60/39/1 49/40/1 50/38/1 61/37/1
f 59/41/1 48/42/1 49/40/1 60/39/1
f 58/43/1 47/44/1 48/42/1 59/41/1
f 57/45/1 46/46/1 47/44/1 58/43/1
f 102/47/1 101/48/1 46/46/1 57/45/1
f 103/49/1 102/47/1 57/45/1 68/50/1
f 68/50/1 57/45/1 58/43/1 69/51/1
f 69/51/1 58/43/1 59/41/1 70/52/1
f 70/52/1 59/41/1 60/39/1 71/53/1
f 71/53/1 60/39/1 61/37/1 72/54/1
f 73/55/1 72/54/1 61/37/1 62/35/1
f 74/56/1 73/55/1 62/35/1 63/33/1
f 75/57/1 74/56/1 63/33/1 64/30/1
f 95/58/1 75/57/1 64/30/1 94/29/1
f 91/59/1 36/60/1 75/57/1 95/58/1
f 36/60/1 35/10/1 74/56/1 75/57/1
f 35/10/1 33/9/1 73/55/1 74/56/1
f 33/9/1 34/61/1 72/54/1 73/55/1
f 11/62/1 71/53/1 72/54/1 34/61/1
f 12/63/1 70/52/1 71/53/1 11/62/1
f 13/64/1 69/51/1 70/52/1 12/63/1
f 14/65/1 68/50/1 69/51/1 13/64/1
f 99/66/1 103/49/1 68/50/1 14/65/1
f 54/67/1 55/68/1 88/69/1 87/70/1
f 93/32/1 53/31/1 86/25/1 96/27/1
f 53/31/1 52/34/1 85/23/1 86/25/1
f 52/34/1 51/36/1 84/21/1 85/23/1
f 51/36/1 50/38/1 83/20/1 84/21/1
f 49/40/1 82/18/1 83/20/1 50/38/1
f 48/42/1 81/17/1 82/18/1 49/40/1
f 47/44/1 80/16/1 81/17/1 48/42/1
f 46/46/1 79/15/1 80/16/1 47/44/1
f 101/48/1 104/13/1 79/15/1 46/46/1
f 55/68/1 93/32/1 96/27/1 88/69/1
f 37/71/1 91/59/1 95/58/1 77/72/1
f 77/72/1 95/58/1 94/29/1 66/73/1
f 66/73/1 94/29/1 93/32/1 55/68/1
f 88/69/1 96/27/1 92/28/1 43/74/1
f 36/60/1 91/59/1 90/75/1 28/76/1
f 67/77/1 56/78/1 102/47/1 103/49/1
g Ground_Ground_Plane.003_Line.002
usemtl Line.002
f 11/62/1 2/79/1 4/80/1 12/63/1
f 12/63/1 4/80/1 6/81/1 13/64/1
f 13/64/1 6/81/1 8/82/1 14/65/1
f 3/4/1 17/3/1 18/6/1 5/5/1
f 35/10/1 36/60/1 28/76/1 26/11/1
f 21/83/1 25/84/1 41/24/1 39/22/1
f 25/84/1 27/85/1 42/26/1 41/24/1
f 65/86/1 66/73/1 55/68/1 54/67/1
f 76/87/1 77/72/1 66/73/1 65/86/1
f 27/85/1 89/88/1 92/28/1 42/26/1
f 45/89/1 78/90/1 104/13/1 101/48/1
f 56/78/1 45/89/1 101/48/1 102/47/1
g Ground_Ground_Plane.003_Path.002
usemtl Path.002
f 11/62/1 34/61/1 24/91/1 2/79/1
f 99/66/1 98/92/1 10/93/1 15/94/1
f 1/1/1 23/95/1 40/19/1 16/2/1
f 97/96/1 100/14/1 20/97/1 9/98/1
f 33/9/1 22/12/1 24/91/1 34/61/1
f 91/59/1 37/71/1 30/99/1 90/75/1
f 37/71/1 38/100/1 32/101/1 30/99/1
f 21/83/1 39/22/1 40/19/1 23/95/1
f 89/88/1 29/102/1 43/74/1 92/28/1
f 29/102/1 31/103/1 44/104/1 43/74/1
f 87/70/1 88/69/1 43/74/1 44/104/1
f 38/100/1 37/71/1 77/72/1 76/87/1
f 15/94/1 67/77/1 103/49/1 99/66/1
f 78/90/1 20/97/1 100/14/1 104/13/1
f 7/8/1 19/7/1 100/14/1 97/96/1
f 14/65/1 8/82/1 98/92/1 99/66/1
