# Blender v2.80 (sub 46) OBJ File: 'Roads.blend'
# www.blender.org
mtllib S Straight.mtl
o S__Road_Straight_Plane
v 52.756477 1.000000 -52.301437
v 21.000000 1.000000 -52.301437
v 1.000000 0.000000 -52.301437
v 21.000000 0.000000 -52.301437
v 52.756477 0.000000 -52.301437
v 21.000000 0.000000 -52.301437
v -52.756477 1.000000 -52.301437
v -21.000000 1.000000 -52.301437
v -1.000000 0.000000 -52.301437
v -21.000000 0.000000 -52.301437
v 0.000000 0.000000 -52.301437
v -52.756477 0.000000 -52.301437
v -21.000000 0.000000 -52.301437
v 52.756477 1.000000 52.301437
v 21.000000 0.000000 0.000000
v 21.000000 1.000000 52.301437
v 1.000000 0.000000 52.301437
v 21.000000 0.000000 52.301437
v 21.000000 1.000000 0.000000
v 1.000000 0.000000 0.000000
v 52.756477 1.000000 0.000000
v 52.756477 0.000000 52.301437
v 21.000000 0.000000 52.301437
v -52.756477 1.000000 52.301437
v -21.000000 0.000000 0.000000
v -21.000000 1.000000 52.301437
v -1.000000 0.000000 52.301437
v -21.000000 0.000000 52.301437
v 0.000000 0.000000 52.301437
v -21.000000 1.000000 0.000000
v -1.000000 0.000000 0.000000
v 0.000000 0.000000 0.000000
v -52.756477 1.000000 0.000000
v -52.756477 0.000000 52.301437
v -21.000000 0.000000 52.301437
vt 1.000000 1.000000
vt 1.000000 0.500000
vt 1.000000 0.500000
vt 1.000000 1.000000
vt 1.000000 1.000000
vt 1.000000 0.500000
vt 1.000000 1.000000
vt 1.000000 1.000000
vt 1.000000 0.500000
vt 1.000000 0.500000
vt 1.000000 1.000000
vt 1.000000 0.500000
vt 1.000000 1.000000
vt 1.000000 1.000000
vt 1.000000 1.000000
vt 1.000000 1.000000
vt 1.000000 1.000000
vt 1.000000 1.000000
vt 0.500000 0.500000
vt 0.500000 1.000000
vt 0.500000 1.000000
vt 1.000000 0.500000
vt 1.000000 1.000000
vt 1.000000 1.000000
vt 1.000000 1.000000
vt 1.000000 1.000000
vt 1.000000 0.500000
vt 1.000000 1.000000
vt 1.000000 1.000000
vt 1.000000 1.000000
vt 1.000000 1.000000
vt 1.000000 1.000000
vt 1.000000 1.000000
vt 1.000000 1.000000
vt 1.000000 1.000000
vn -1.0000 0.0000 0.0000
vn 0.0000 1.0000 0.0000
vn 1.0000 0.0000 0.0000
vn 0.0000 0.0000 -1.0000
vn 0.0000 0.0000 1.0000
g S__Road_Straight_Plane_Road
usemtl Road
s off
f 4/1/1 15/2/1 19/3/1 2/4/1
f 3/5/2 20/6/2 15/2/2 4/1/2
f 10/7/3 8/8/3 30/9/3 25/10/3
f 9/11/2 10/7/2 25/10/2 31/12/2
f 18/13/1 16/14/1 19/3/1 15/2/1
f 17/15/2 18/13/2 15/2/2 20/6/2
f 28/16/3 25/10/3 30/9/3 26/17/3
f 27/18/2 31/12/2 25/10/2 28/16/2
g S__Road_Straight_Plane_Line
usemtl Line
f 32/19/2 20/6/2 3/5/2 11/20/2
f 32/19/2 11/20/2 9/11/2 31/12/2
f 32/19/2 29/21/2 17/15/2 20/6/2
f 32/19/2 31/12/2 27/18/2 29/21/2
g S__Road_Straight_Plane_Path
usemtl Path
f 2/4/2 19/3/2 21/22/2 1/23/2
f 2/4/4 1/23/4 5/24/4 6/25/4
f 8/8/2 7/26/2 33/27/2 30/9/2
f 8/8/4 13/28/4 12/29/4 7/26/4
f 16/14/2 14/30/2 21/22/2 19/3/2
f 16/14/5 23/31/5 22/32/5 14/30/5
f 26/17/2 30/9/2 33/27/2 24/33/2
f 26/17/5 24/33/5 34/34/5 35/35/5
