# Blender v2.80 (sub 46) OBJ File: 'Building Assets.blend'
# www.blender.org
mtllib Double Bed LOD1.mtl
o Back_Board.003_Cube.034
v -9.302153 1.479599 11.300000
v -9.302153 5.458723 11.300000
v -9.302153 1.479599 -1.479917
v -9.302153 5.458723 -1.479917
v -8.719622 1.479599 11.300000
v -8.719622 5.458723 11.300000
v -8.719622 1.479599 -1.479917
v -8.719622 5.458723 -1.479917
vt 0.375000 0.000000
vt 0.625000 0.000000
vt 0.625000 0.250000
vt 0.375000 0.250000
vt 0.625000 0.500000
vt 0.375000 0.500000
vt 0.625000 0.750000
vt 0.375000 0.750000
vt 0.625000 1.000000
vt 0.375000 1.000000
vt 0.875000 0.500000
vt 0.875000 0.750000
vn -1.0000 0.0000 0.0000
vn 0.0000 0.0000 -1.0000
vn 1.0000 0.0000 0.0000
vn 0.0000 0.0000 1.0000
vn 0.0000 1.0000 0.0000
g Back_Board.003_Cube.034_None
usemtl None
s off
f 1/1/1 2/2/1 4/3/1 3/4/1
f 3/4/2 4/3/2 8/5/2 7/6/2
f 7/6/3 8/5/3 6/7/3 5/8/3
f 5/8/4 6/7/4 2/9/4 1/10/4
f 8/5/5 4/11/5 2/12/5 6/7/5
o Base.001_Cube.033
v -9.300000 -0.500000 11.299999
v -9.300000 1.500000 11.299999
v -9.300000 -0.500000 -1.500000
v -9.300000 1.500000 -1.500000
v 4.300000 -0.500000 11.299999
v 4.300000 1.500000 11.299999
v 4.300000 -0.500000 -1.500000
v 4.300000 1.500000 -1.500000
vt 0.375000 0.000000
vt 0.625000 0.000000
vt 0.625000 0.250000
vt 0.375000 0.250000
vt 0.625000 0.500000
vt 0.375000 0.500000
vt 0.625000 0.750000
vt 0.375000 0.750000
vt 0.625000 1.000000
vt 0.375000 1.000000
vt 0.875000 0.500000
vt 0.875000 0.750000
vn -1.0000 0.0000 0.0000
vn 0.0000 0.0000 -1.0000
vn 1.0000 0.0000 0.0000
vn 0.0000 0.0000 1.0000
vn 0.0000 1.0000 0.0000
g Base.001_Cube.033_None
usemtl None
s off
f 9/13/6 10/14/6 12/15/6 11/16/6
f 11/16/7 12/15/7 16/17/7 15/18/7
f 15/18/8 16/17/8 14/19/8 13/20/8
f 13/20/9 14/19/9 10/21/9 9/22/9
f 16/17/10 12/23/10 10/24/10 14/19/10
o Front_Board.003_Cube.032
v 3.718512 1.479599 11.300000
v 3.718512 3.302887 11.300000
v 3.718512 1.479599 -1.479917
v 3.718512 3.302887 -1.479917
v 4.301044 1.479599 11.300000
v 4.301044 3.302887 11.300000
v 4.301044 1.479599 -1.479917
v 4.301044 3.302887 -1.479917
vt 0.375000 0.000000
vt 0.625000 0.000000
vt 0.625000 0.250000
vt 0.375000 0.250000
vt 0.625000 0.500000
vt 0.375000 0.500000
vt 0.625000 0.750000
vt 0.375000 0.750000
vt 0.625000 1.000000
vt 0.375000 1.000000
vt 0.875000 0.500000
vt 0.875000 0.750000
vn -1.0000 0.0000 0.0000
vn 0.0000 0.0000 -1.0000
vn 1.0000 0.0000 0.0000
vn 0.0000 0.0000 1.0000
vn 0.0000 1.0000 0.0000
g Front_Board.003_Cube.032_None
usemtl None
s off
f 17/25/11 18/26/11 20/27/11 19/28/11
f 19/28/12 20/27/12 24/29/12 23/30/12
f 23/30/13 24/29/13 22/31/13 21/32/13
f 21/32/14 22/31/14 18/33/14 17/34/14
f 24/29/15 20/35/15 18/36/15 22/31/15
