# Blender v2.80 (sub 46) OBJ File: 'Building Assets.blend'
# www.blender.org
mtllib Double  Bed.mtl
o Bed-Bottom_Cube.011
v -9.000000 1.000000 11.000000
v -9.000000 1.500000 11.000000
v -9.000000 1.000000 -1.000000
v -9.000000 1.500000 -1.000000
v 4.000000 1.000000 11.000000
v 4.000000 1.500000 11.000000
v 4.000000 1.000000 -1.000000
v 4.000000 1.500000 -1.000000
vt 0.375000 0.000000
vt 0.625000 0.000000
vt 0.625000 0.250000
vt 0.375000 0.250000
vt 0.625000 0.500000
vt 0.375000 0.500000
vt 0.625000 0.750000
vt 0.375000 0.750000
vt 0.625000 1.000000
vt 0.375000 1.000000
vt 0.125000 0.500000
vt 0.125000 0.750000
vt 0.875000 0.500000
vt 0.875000 0.750000
vn -1.0000 0.0000 0.0000
vn 0.0000 0.0000 -1.0000
vn 1.0000 0.0000 0.0000
vn 0.0000 0.0000 1.0000
vn 0.0000 -1.0000 0.0000
vn 0.0000 1.0000 0.0000
g Bed-Bottom_Cube.011_Black
usemtl Black
s off
f 1/1/1 2/2/1 4/3/1 3/4/1
f 3/4/2 4/3/2 8/5/2 7/6/2
f 7/6/3 8/5/3 6/7/3 5/8/3
f 5/8/4 6/7/4 2/9/4 1/10/4
f 3/11/5 7/6/5 5/8/5 1/12/5
f 8/5/6 4/13/6 2/14/6 6/7/6
o Front_Board.001_Cube.010
v 3.700000 -0.300000 11.299999
v 3.700000 3.300000 11.299999
v 3.700000 -0.300000 10.700000
v 3.700000 3.300000 10.700000
v 4.300000 -0.300000 11.299999
v 4.300000 3.300000 11.299999
v 4.300000 -0.300000 10.700000
v 4.300000 3.300000 10.700000
v 3.700000 0.960000 11.299999
v 3.700000 0.960000 10.700000
v 4.300000 0.960000 10.700000
v 4.300000 0.960000 11.299999
v 3.700000 3.300000 -0.900000
v 4.300000 3.300000 -0.900000
v 3.700000 0.960000 -0.900000
v 4.300000 0.960000 -0.900000
v 3.700000 3.300000 -1.500000
v 4.300000 3.300000 -1.500000
v 3.700000 0.960000 -1.500000
v 4.300000 0.960000 -1.500000
v 3.700000 -0.240000 -0.900000
v 4.300000 -0.240000 -0.900000
v 3.700000 -0.240000 -1.500000
v 4.300000 -0.240000 -1.500000
vt 0.462500 0.000000
vt 0.625000 0.000000
vt 0.625000 0.250000
vt 0.462500 0.250000
vt 0.625000 0.250000
vt 0.462500 0.250000
vt 0.462500 0.500000
vt 0.625000 0.500000
vt 0.625000 0.750000
vt 0.462500 0.750000
vt 0.625000 1.000000
vt 0.462500 1.000000
vt 0.125000 0.500000
vt 0.375000 0.500000
vt 0.375000 0.750000
vt 0.125000 0.750000
vt 0.875000 0.500000
vt 0.875000 0.750000
vt 0.375000 1.000000
vt 0.375000 0.250000
vt 0.375000 0.000000
vt 0.625000 0.500000
vt 0.462500 0.500000
vt 0.462500 0.500000
vt 0.625000 0.500000
vt 0.875000 0.500000
vt 0.462500 0.250000
vt 0.625000 0.250000
vt 0.875000 0.500000
vt 0.462500 0.250000
vt 0.462500 0.250000
vt 0.462500 0.500000
vt 0.462500 0.500000
vn -1.0000 0.0000 0.0000
vn 1.0000 0.0000 0.0000
vn 0.0000 0.0000 1.0000
vn 0.0000 -1.0000 0.0000
vn 0.0000 1.0000 0.0000
vn 0.0000 0.0000 -1.0000
g Front_Board.001_Cube.010_Black
usemtl Black
s off
f 17/15/7 10/16/7 12/17/7 18/18/7
f 18/18/7 12/17/7 21/19/7 23/20/7
f 19/21/8 16/22/8 14/23/8 20/24/8
f 20/24/9 14/23/9 10/25/9 17/26/9
f 11/27/10 15/28/10 13/29/10 9/30/10
f 16/22/11 12/31/11 10/32/11 14/23/11
f 13/29/9 20/24/9 17/26/9 9/33/9
f 15/28/8 19/21/8 20/24/8 13/29/8
f 11/34/12 18/18/12 19/21/12 15/28/12
f 9/35/7 17/15/7 18/18/7 11/34/7
f 22/36/8 24/37/8 28/38/8 26/39/8
f 19/21/10 18/18/10 23/20/10 24/37/10
f 12/31/11 16/22/11 22/36/11 21/40/11
f 16/22/8 19/21/8 24/37/8 22/36/8
f 27/41/12 25/42/12 26/39/12 28/38/12
f 21/40/11 22/36/11 26/39/11 25/43/11
f 23/20/7 27/41/7 31/44/7 29/45/7
f 23/20/7 21/19/7 25/42/7 27/41/7
f 30/46/10 29/45/10 31/44/10 32/47/10
f 27/41/12 28/38/12 32/47/12 31/44/12
f 24/37/9 23/20/9 29/45/9 30/46/9
f 28/38/8 24/37/8 30/46/8 32/47/8
o Back_Board.001_Cube.009
v -9.300000 -0.300000 11.299999
v -9.300000 3.300000 11.299999
v -9.300000 -0.300000 10.700000
v -9.300000 3.300000 10.700000
v -8.700000 -0.300000 11.299999
v -8.700000 3.300000 11.299999
v -8.700000 -0.300000 10.700000
v -8.700000 3.300000 10.700000
v -9.300000 0.960000 11.299999
v -9.300000 0.960000 10.700000
v -8.700000 0.960000 10.700000
v -8.700000 0.960000 11.299999
v -9.300000 3.300000 -0.900000
v -8.700000 3.300000 -0.900000
v -9.300000 0.960000 -0.900000
v -8.700000 0.960000 -0.900000
v -9.300000 3.300000 -1.500000
v -8.700000 3.300000 -1.500000
v -9.300000 0.960000 -1.500000
v -8.700000 0.960000 -1.500000
v -9.300000 -0.240000 -0.900000
v -8.700000 -0.240000 -0.900000
v -9.300000 -0.240000 -1.500000
v -8.700000 -0.240000 -1.500000
v -9.300000 4.443786 11.299999
v -9.300000 4.443786 10.700000
v -8.700000 4.443786 10.700000
v -8.700000 4.443786 11.299999
v -9.300000 4.443786 -0.900000
v -8.700000 4.443786 -0.900000
v -9.300000 4.443786 -1.500000
v -8.700000 4.443786 -1.500000
v -9.300000 5.443785 11.299999
v -9.300000 5.443785 10.700000
v -8.700000 5.443785 10.700000
v -8.700000 5.443785 11.299999
v -9.300000 5.443785 -0.900000
v -8.700000 5.443785 -0.900000
v -9.300000 5.443785 -1.500000
v -8.700000 5.443785 -1.500000
v -9.300000 4.443786 2.900000
v -9.300000 4.443786 3.700000
v -9.300000 4.443786 4.500000
v -9.300000 4.443786 5.300000
v -9.300000 4.443786 6.100000
v -9.300000 4.443786 6.900000
v -9.300000 5.443785 2.900000
v -9.300000 5.443785 3.700000
v -9.300000 5.443785 4.500000
v -9.300000 5.443785 5.300000
v -9.300000 5.443785 6.100000
v -9.300000 5.443785 6.900000
v -8.700000 5.443785 6.900000
v -8.700000 5.443785 6.100000
v -8.700000 5.443785 5.300000
v -8.700000 5.443785 4.500000
v -8.700000 5.443785 3.700000
v -8.700000 5.443785 2.900000
v -8.700000 4.443786 6.900000
v -8.700000 4.443786 6.100000
v -8.700000 4.443786 5.300000
v -8.700000 4.443786 4.500000
v -8.700000 4.443786 3.700000
v -8.700000 4.443786 2.900000
v -9.300000 3.300000 6.900000
v -9.300000 3.300000 6.100000
v -9.300000 3.300000 5.300000
v -9.300000 3.300000 4.500000
v -9.300000 3.300000 3.700000
v -9.300000 3.300000 2.900000
v -9.300000 0.960000 2.900000
v -9.300000 0.960000 3.700000
v -9.300000 0.960000 4.500000
v -9.300000 0.960000 5.300000
v -9.300000 0.960000 6.100000
v -9.300000 0.960000 6.900000
v -8.700000 0.960000 2.900000
v -8.700000 0.960000 3.700000
v -8.700000 0.960000 4.500000
v -8.700000 0.960000 5.300000
v -8.700000 0.960000 6.100000
v -8.700000 0.960000 6.900000
v -8.700000 3.300000 6.900000
v -8.700000 3.300000 6.100000
v -8.700000 3.300000 5.300000
v -8.700000 3.300000 4.500000
v -8.700000 3.300000 3.700000
v -8.700000 3.300000 2.900000
vt 0.462500 0.000000
vt 0.625000 0.000000
vt 0.625000 0.250000
vt 0.462500 0.250000
vt 0.462500 0.250000
vt 0.625000 0.250000
vt 0.625000 0.250000
vt 0.462500 0.250000
vt 0.462500 0.500000
vt 0.625000 0.500000
vt 0.625000 0.750000
vt 0.462500 0.750000
vt 0.625000 1.000000
vt 0.462500 1.000000
vt 0.125000 0.500000
vt 0.375000 0.500000
vt 0.375000 0.750000
vt 0.125000 0.750000
vt 0.625000 0.250000
vt 0.625000 0.250000
vt 0.625000 0.250000
vt 0.375000 1.000000
vt 0.375000 0.250000
vt 0.375000 0.000000
vt 0.625000 0.500000
vt 0.462500 0.500000
vt 0.462500 0.500000
vt 0.625000 0.500000
vt 0.462500 0.500000
vt 0.875000 0.500000
vt 0.625000 0.500000
vt 0.875000 0.500000
vt 0.462500 0.250000
vt 0.875000 0.500000
vt 0.875000 0.500000
vt 0.625000 0.500000
vt 0.462500 0.250000
vt 0.462500 0.250000
vt 0.462500 0.500000
vt 0.462500 0.500000
vt 0.625000 0.500000
vt 0.625000 0.250000
vt 0.625000 0.500000
vt 0.625000 0.250000
vt 0.625000 0.750000
vt 0.625000 0.000000
vt 0.625000 0.250000
vt 0.625000 0.500000
vt 0.625000 1.000000
vt 0.875000 0.500000
vt 0.625000 0.500000
vt 0.875000 0.500000
vt 0.875000 0.750000
vt 0.625000 0.750000
vt 0.875000 0.500000
vt 0.625000 0.500000
vt 0.875000 0.500000
vt 0.625000 1.000000
vt 0.625000 0.250000
vt 0.625000 0.250000
vt 0.625000 0.250000
vt 0.625000 0.500000
vt 0.839286 0.464286
vt 0.625000 0.000000
vt 0.625000 0.500000
vt 0.839286 0.464286
vt 0.660714 0.285714
vt 0.625000 0.500000
vt 0.625000 0.500000
vt 0.625000 0.500000
vt 0.625000 0.500000
vt 0.696429 0.321429
vt 0.732143 0.357143
vt 0.625000 0.500000
vt 0.625000 0.250000
vt 0.625000 0.500000
vt 0.767857 0.392857
vt 0.803571 0.428571
vt 0.625000 0.500000
vt 0.625000 0.250000
vt 0.625000 0.250000
vt 0.625000 0.500000
vt 0.625000 0.500000
vt 0.625000 0.500000
vt 0.625000 0.500000
vt 0.625000 0.500000
vt 0.660714 0.285714
vt 0.696429 0.321429
vt 0.732143 0.357143
vt 0.767857 0.392857
vt 0.803571 0.428571
vt 0.625000 0.250000
vt 0.625000 0.250000
vt 0.625000 0.250000
vt 0.625000 0.250000
vt 0.625000 0.250000
vt 0.625000 0.250000
vt 0.625000 0.250000
vt 0.625000 0.250000
vt 0.625000 0.250000
vt 0.462500 0.500000
vt 0.462500 0.500000
vt 0.462500 0.500000
vt 0.625000 0.500000
vt 0.462500 0.500000
vt 0.625000 0.500000
vt 0.462500 0.500000
vt 0.625000 0.500000
vt 0.875000 0.500000
vt 0.875000 0.500000
vt 0.875000 0.500000
vt 0.875000 0.500000
vt 0.875000 0.500000
vt 0.462500 0.250000
vt 0.462500 0.250000
vt 0.462500 0.250000
vt 0.462500 0.250000
vt 0.462500 0.250000
vt 0.625000 0.250000
vt 0.625000 0.250000
vt 0.625000 0.250000
vn -1.0000 0.0000 0.0000
vn 1.0000 0.0000 0.0000
vn 0.0000 0.0000 1.0000
vn 0.0000 -1.0000 0.0000
vn 0.0000 0.0000 -1.0000
vn 0.0000 1.0000 0.0000
g Back_Board.001_Cube.009_Black
usemtl Black
s off
f 41/48/13 34/49/13 36/50/13 42/51/13
f 103/52/13 102/53/13 45/54/13 47/55/13
f 43/56/14 40/57/14 38/58/14 44/59/14
f 44/59/15 38/58/15 34/60/15 41/61/15
f 35/62/16 39/63/16 37/64/16 33/65/16
f 49/66/13 45/54/13 61/67/13 63/68/13
f 37/64/15 44/59/15 41/61/15 33/69/15
f 39/63/14 43/56/14 44/59/14 37/64/14
f 35/70/17 42/51/17 43/56/17 39/63/17
f 33/71/13 41/48/13 42/51/13 35/70/13
f 46/72/14 48/73/14 52/74/14 50/75/14
f 109/76/16 103/52/16 47/55/16 48/73/16
f 102/77/18 120/78/18 46/72/18 45/79/18
f 120/78/14 109/76/14 48/73/14 46/72/14
f 51/80/17 49/66/17 50/75/17 52/74/17
f 40/57/17 36/81/17 58/82/17 59/83/17
f 47/55/13 51/80/13 55/84/13 53/85/13
f 47/55/13 45/54/13 49/66/13 51/80/13
f 54/86/16 53/85/16 55/84/16 56/87/16
f 51/80/17 52/74/17 56/87/17 55/84/17
f 48/73/15 47/55/15 53/85/15 54/86/15
f 52/74/14 48/73/14 54/86/14 56/87/14
f 64/88/17 63/68/17 71/89/17 72/90/17
f 63/68/13 61/67/13 69/91/13 71/89/13
f 38/58/14 40/57/14 59/83/14 60/92/14
f 50/75/17 49/66/17 63/68/17 64/88/17
f 36/50/13 34/49/13 57/93/13 58/94/13
f 46/72/14 50/75/14 64/88/14 62/95/14
f 34/60/15 38/58/15 60/92/15 57/96/15
f 45/79/15 46/72/15 62/95/15 61/97/15
f 67/98/18 66/99/18 65/100/18 68/101/18
f 69/102/18 70/103/18 72/90/18 71/104/18
f 57/96/15 60/92/15 68/101/15 65/105/15
f 84/106/13 78/107/13 58/94/13 66/108/13
f 62/95/14 64/88/14 72/90/14 70/103/14
f 90/109/18 70/103/18 69/102/18 79/110/18
f 60/92/14 59/83/14 67/98/14 68/101/14
f 58/94/13 57/93/13 65/111/13 66/108/13
f 96/112/14 62/95/14 70/103/14 90/109/14
f 96/112/16 73/113/16 61/97/16 62/95/16
f 59/83/16 58/94/16 78/114/16 91/115/16
f 92/116/14 91/115/14 115/117/14 116/118/14
f 92/116/16 77/119/16 76/120/16 93/121/16
f 78/107/15 97/122/15 115/117/15 91/115/15
f 94/123/16 75/124/16 74/125/16 95/126/16
f 77/127/13 98/128/13 97/122/13 78/107/13
f 59/83/14 91/115/14 85/129/14 67/98/14
f 91/115/14 92/116/14 86/130/14 85/129/14
f 92/116/14 93/121/14 87/131/14 86/130/14
f 93/121/14 94/123/14 88/132/14 87/131/14
f 94/123/14 95/126/14 89/133/14 88/132/14
f 95/126/14 96/112/14 90/109/14 89/133/14
f 67/98/18 85/129/18 84/134/18 66/108/18
f 85/129/18 86/130/18 83/135/18 84/134/18
f 86/130/18 87/131/18 82/136/18 83/135/18
f 87/131/18 88/132/18 81/137/18 82/136/18
f 88/132/18 89/133/18 80/138/18 81/137/18
f 89/133/18 90/109/18 79/110/18 80/138/18
f 69/91/13 61/67/13 73/139/13 79/140/13
f 79/140/13 73/139/13 74/141/13 80/142/13
f 80/142/13 74/141/13 75/143/13 81/144/13
f 81/144/13 75/143/13 76/145/13 82/146/13
f 82/146/13 76/145/13 77/127/13 83/147/13
f 83/147/13 77/127/13 78/107/13 84/106/13
f 40/57/14 43/56/14 114/148/14 115/117/14
f 115/117/14 114/148/14 113/149/14 116/118/14
f 116/118/14 113/149/14 112/150/14 117/151/14
f 117/151/14 112/150/14 111/152/14 118/153/14
f 118/153/14 111/152/14 110/154/14 119/155/14
f 119/155/14 110/154/14 109/76/14 120/78/14
f 36/81/18 40/57/18 115/117/18 97/156/18
f 98/157/18 116/118/18 117/151/18 99/158/18
f 100/159/18 118/153/18 119/155/18 101/160/18
f 43/56/16 42/51/16 108/161/16 114/148/16
f 114/148/16 108/161/16 107/162/16 113/149/16
f 113/149/16 107/162/16 106/163/16 112/150/16
f 112/150/16 106/163/16 105/164/16 111/152/16
f 111/152/16 105/164/16 104/165/16 110/154/16
f 110/154/16 104/165/16 103/52/16 109/76/16
f 42/51/13 36/50/13 97/122/13 108/161/13
f 108/161/13 97/122/13 98/128/13 107/162/13
f 107/162/13 98/128/13 99/166/13 106/163/13
f 106/163/13 99/166/13 100/167/13 105/164/13
f 105/164/13 100/167/13 101/168/13 104/165/13
f 104/165/13 101/168/13 102/53/13 103/52/13
f 77/127/17 92/116/17 116/118/17 98/128/17
f 76/120/15 99/158/15 117/151/15 93/121/15
f 75/143/13 100/167/13 99/166/13 76/120/13
f 75/143/17 94/123/17 118/153/17 100/167/17
f 94/123/14 93/121/14 117/151/14 118/153/14
f 74/125/15 101/160/15 119/155/15 95/126/15
f 73/139/13 102/53/13 101/168/13 74/125/13
f 73/139/17 96/112/17 120/78/17 102/53/17
f 96/112/14 95/126/14 119/155/14 120/78/14
