# Blender v2.80 (sub 46) OBJ File: 'Building Assets.blend'
# www.blender.org
mtllib Chair-LOD1.mtl
o Bottom_Cube.026
v -1.391851 -0.007568 1.396607
v -1.391851 2.500000 1.396607
v -1.391851 -0.007568 -1.438651
v -1.391851 2.500000 -1.438651
v 1.454609 -0.007568 1.396607
v 1.454609 2.500000 1.396607
v 1.454609 -0.007568 -1.438651
v 1.454609 2.500000 -1.438651
vt 0.375000 0.000000
vt 0.625000 0.000000
vt 0.625000 0.250000
vt 0.375000 0.250000
vt 0.625000 0.500000
vt 0.375000 0.500000
vt 0.625000 0.750000
vt 0.375000 0.750000
vt 0.625000 1.000000
vt 0.375000 1.000000
vt 0.875000 0.500000
vt 0.875000 0.750000
vn -1.0000 0.0000 0.0000
vn 0.0000 0.0000 -1.0000
vn 1.0000 0.0000 0.0000
vn 0.0000 0.0000 1.0000
vn 0.0000 1.0000 0.0000
g Bottom_Cube.026_None
usemtl None
s off
f 1/1/1 2/2/1 4/3/1 3/4/1
f 3/4/2 4/3/2 8/5/2 7/6/2
f 7/6/3 8/5/3 6/7/3 5/8/3
f 5/8/4 6/7/4 2/9/4 1/10/4
f 8/5/5 4/11/5 2/12/5 6/7/5
o Top_Cube.027
v -1.295861 2.000000 1.322484
v -1.569976 6.145425 1.322484
v -1.295861 2.000000 -1.306603
v -1.569976 6.145425 -1.306603
v -0.942434 2.000000 1.322484
v -1.216549 6.145425 1.322484
v -0.942434 2.000000 -1.306603
v -1.216549 6.145425 -1.306603
vt 0.375000 0.000000
vt 0.625000 0.000000
vt 0.625000 0.250000
vt 0.375000 0.250000
vt 0.625000 0.500000
vt 0.375000 0.500000
vt 0.625000 0.750000
vt 0.375000 0.750000
vt 0.625000 1.000000
vt 0.375000 1.000000
vt 0.875000 0.500000
vt 0.875000 0.750000
vn -0.9978 -0.0660 0.0000
vn 0.0000 0.0000 -1.0000
vn 0.9978 0.0660 0.0000
vn 0.0000 0.0000 1.0000
vn 0.0000 1.0000 0.0000
g Top_Cube.027_None
usemtl None
s off
f 9/13/6 10/14/6 12/15/6 11/16/6
f 11/16/7 12/15/7 16/17/7 15/18/7
f 15/18/8 16/17/8 14/19/8 13/20/8
f 13/20/9 14/19/9 10/21/9 9/22/9
f 16/17/10 12/23/10 10/24/10 14/19/10
