# Blender v2.80 (sub 46) OBJ File: 'Building Assets.blend'
# www.blender.org
mtllib Chair.mtl
o Seat_Base_Cube.017
v -1.380741 2.234240 1.409893
v -1.380741 2.469222 1.409893
v -1.380741 2.234240 -1.409893
v -1.380741 2.469222 -1.409893
v 1.439045 2.234240 1.409893
v 1.439045 2.469222 1.409893
v 1.439045 2.234240 -1.409893
v 1.439045 2.469222 -1.409893
vt 0.375000 0.000000
vt 0.625000 0.000000
vt 0.625000 0.250000
vt 0.375000 0.250000
vt 0.625000 0.500000
vt 0.375000 0.500000
vt 0.625000 0.750000
vt 0.375000 0.750000
vt 0.625000 1.000000
vt 0.375000 1.000000
vt 0.125000 0.500000
vt 0.125000 0.750000
vt 0.875000 0.500000
vt 0.875000 0.750000
vn -1.0000 0.0000 0.0000
vn 0.0000 0.0000 -1.0000
vn 1.0000 0.0000 0.0000
vn 0.0000 0.0000 1.0000
vn 0.0000 -1.0000 0.0000
vn 0.0000 1.0000 0.0000
g Seat_Base_Cube.017_None
usemtl None
s off
f 1/1/1 2/2/1 4/3/1 3/4/1
f 3/4/2 4/3/2 8/5/2 7/6/2
f 7/6/3 8/5/3 6/7/3 5/8/3
f 5/8/4 6/7/4 2/9/4 1/10/4
f 3/11/5 7/6/5 5/8/5 1/12/5
f 8/5/6 4/13/6 2/14/6 6/7/6
o Leg.012_Cube.018
v 1.086571 0.001910 1.292402
v 1.086571 2.351731 1.292402
v 1.086571 0.001910 1.057420
v 1.086571 2.351731 1.057420
v 1.321553 0.001910 1.292402
v 1.321553 2.351731 1.292402
v 1.321553 0.001910 1.057420
v 1.321553 2.351731 1.057420
vt 0.375000 0.000000
vt 0.625000 0.000000
vt 0.625000 0.250000
vt 0.375000 0.250000
vt 0.625000 0.500000
vt 0.375000 0.500000
vt 0.625000 0.750000
vt 0.375000 0.750000
vt 0.625000 1.000000
vt 0.375000 1.000000
vt 0.125000 0.500000
vt 0.125000 0.750000
vn -1.0000 0.0000 0.0000
vn 0.0000 0.0000 -1.0000
vn 1.0000 0.0000 0.0000
vn 0.0000 0.0000 1.0000
vn 0.0000 -1.0000 0.0000
g Leg.012_Cube.018_None
usemtl None
s off
f 9/15/7 10/16/7 12/17/7 11/18/7
f 11/18/8 12/17/8 16/19/8 15/20/8
f 15/20/9 16/19/9 14/21/9 13/22/9
f 13/22/10 14/21/10 10/23/10 9/24/10
f 11/25/11 15/20/11 13/22/11 9/26/11
o Leg.018_Cube.019
v -1.263250 0.001910 1.292402
v -1.263250 2.351731 1.292402
v -1.263250 0.001910 1.057420
v -1.263250 2.351731 1.057420
v -1.028268 0.001910 1.292402
v -1.028268 2.351731 1.292402
v -1.028268 0.001910 1.057420
v -1.028268 2.351731 1.057420
vt 0.375000 0.000000
vt 0.625000 0.000000
vt 0.625000 0.250000
vt 0.375000 0.250000
vt 0.625000 0.500000
vt 0.375000 0.500000
vt 0.625000 0.750000
vt 0.375000 0.750000
vt 0.625000 1.000000
vt 0.375000 1.000000
vt 0.125000 0.500000
vt 0.125000 0.750000
vn -1.0000 0.0000 0.0000
vn 0.0000 0.0000 -1.0000
vn 1.0000 0.0000 0.0000
vn 0.0000 0.0000 1.0000
vn 0.0000 -1.0000 0.0000
g Leg.018_Cube.019_None
usemtl None
s off
f 17/27/12 18/28/12 20/29/12 19/30/12
f 19/30/13 20/29/13 24/31/13 23/32/13
f 23/32/14 24/31/14 22/33/14 21/34/14
f 21/34/15 22/33/15 18/35/15 17/36/15
f 19/37/16 23/32/16 21/34/16 17/38/16
o Leg.020_Cube.021
v 1.086571 0.001910 -1.057420
v 1.086571 2.351731 -1.057420
v 1.086571 0.001910 -1.292402
v 1.086571 2.351731 -1.292402
v 1.321553 0.001910 -1.057420
v 1.321553 2.351731 -1.057420
v 1.321553 0.001910 -1.292402
v 1.321553 2.351731 -1.292402
vt 0.375000 0.000000
vt 0.625000 0.000000
vt 0.625000 0.250000
vt 0.375000 0.250000
vt 0.625000 0.500000
vt 0.375000 0.500000
vt 0.625000 0.750000
vt 0.375000 0.750000
vt 0.625000 1.000000
vt 0.375000 1.000000
vt 0.125000 0.500000
vt 0.125000 0.750000
vn -1.0000 0.0000 0.0000
vn 0.0000 0.0000 -1.0000
vn 1.0000 0.0000 0.0000
vn 0.0000 0.0000 1.0000
vn 0.0000 -1.0000 0.0000
g Leg.020_Cube.021_None
usemtl None
s off
f 25/39/17 26/40/17 28/41/17 27/42/17
f 27/42/18 28/41/18 32/43/18 31/44/18
f 31/44/19 32/43/19 30/45/19 29/46/19
f 29/46/20 30/45/20 26/47/20 25/48/20
f 27/49/21 31/44/21 29/46/21 25/50/21
o Leg.019_Cube.020
v -1.263250 0.001910 -1.057420
v -1.263250 2.351731 -1.057420
v -1.263250 0.001910 -1.292402
v -1.263250 2.351731 -1.292402
v -1.028268 0.001910 -1.057420
v -1.028268 2.351731 -1.057420
v -1.028268 0.001910 -1.292402
v -1.028268 2.351731 -1.292402
vt 0.375000 0.000000
vt 0.625000 0.000000
vt 0.625000 0.250000
vt 0.375000 0.250000
vt 0.625000 0.500000
vt 0.375000 0.500000
vt 0.625000 0.750000
vt 0.375000 0.750000
vt 0.625000 1.000000
vt 0.375000 1.000000
vt 0.125000 0.500000
vt 0.125000 0.750000
vn -1.0000 0.0000 0.0000
vn 0.0000 0.0000 -1.0000
vn 1.0000 0.0000 0.0000
vn 0.0000 0.0000 1.0000
vn 0.0000 -1.0000 0.0000
g Leg.019_Cube.020_None
usemtl None
s off
f 33/51/22 34/52/22 36/53/22 35/54/22
f 35/54/23 36/53/23 40/55/23 39/56/23
f 39/56/24 40/55/24 38/57/24 37/58/24
f 37/58/25 38/57/25 34/59/25 33/60/25
f 35/61/26 39/56/26 37/58/26 33/62/26
o Cube.001_Cube.022
v -1.028268 2.351730 -1.292402
v -1.263250 5.876462 -1.292402
v -1.028268 2.351730 -1.057419
v -1.263250 5.876462 -1.057419
v -1.263250 2.351730 -1.292402
v -1.498232 5.876462 -1.292402
v -1.263250 2.351730 -1.057419
v -1.498232 5.876462 -1.057419
v -1.075264 3.056677 -1.292402
v -1.122261 3.761623 -1.292402
v -1.169257 4.466570 -1.292402
v -1.216253 5.171516 -1.292402
v -1.216253 5.171516 -1.057419
v -1.169257 4.466569 -1.057419
v -1.122261 3.761623 -1.057419
v -1.075264 3.056677 -1.057419
v -1.451236 5.171516 -1.057419
v -1.404239 4.466569 -1.057419
v -1.357243 3.761623 -1.057419
v -1.310246 3.056677 -1.057419
v -1.451236 5.171516 -1.292402
v -1.404239 4.466569 -1.292402
v -1.357243 3.761623 -1.292402
v -1.310246 3.056677 -1.292402
v -1.028268 2.351730 1.292402
v -1.263250 5.876462 1.292402
v -1.028268 2.351730 1.057419
v -1.263250 5.876462 1.057419
v -1.263250 2.351730 1.292402
v -1.498232 5.876462 1.292402
v -1.263250 2.351730 1.057419
v -1.498232 5.876462 1.057419
v -1.075264 3.056677 1.292402
v -1.122261 3.761623 1.292402
v -1.169257 4.466570 1.292402
v -1.216253 5.171516 1.292402
v -1.216253 5.171516 1.057419
v -1.169257 4.466569 1.057419
v -1.122261 3.761623 1.057419
v -1.075264 3.056677 1.057419
v -1.451236 5.171516 1.057419
v -1.404239 4.466569 1.057419
v -1.357243 3.761623 1.057419
v -1.310246 3.056677 1.057419
v -1.451236 5.171516 1.292402
v -1.404239 4.466569 1.292402
v -1.357243 3.761623 1.292402
v -1.310246 3.056677 1.292402
v -1.277669 6.111444 -1.292402
v -1.277669 6.111444 -1.057419
v -1.512651 6.111444 -1.057419
v -1.512651 6.111444 -1.292402
v -1.277669 6.111444 1.292402
v -1.277669 6.111444 1.057419
v -1.512651 6.111444 1.057419
v -1.512651 6.111444 1.292402
vt 0.575000 0.000000
vt 0.625000 0.000000
vt 0.625000 0.250000
vt 0.575000 0.250000
vt 0.625000 0.500000
vt 0.575000 0.500000
vt 0.625000 0.750000
vt 0.575000 0.750000
vt 0.625000 1.000000
vt 0.575000 1.000000
vt 0.625000 0.000000
vt 0.625000 0.250000
vt 0.375000 0.750000
vt 0.425000 0.750000
vt 0.425000 1.000000
vt 0.375000 1.000000
vt 0.475000 0.750000
vt 0.475000 1.000000
vt 0.525000 0.750000
vt 0.525000 1.000000
vt 0.375000 0.500000
vt 0.425000 0.500000
vt 0.475000 0.500000
vt 0.525000 0.500000
vt 0.375000 0.250000
vt 0.425000 0.250000
vt 0.475000 0.250000
vt 0.525000 0.250000
vt 0.375000 0.000000
vt 0.425000 0.000000
vt 0.475000 0.000000
vt 0.525000 0.000000
vt 0.575000 0.000000
vt 0.575000 0.250000
vt 0.625000 0.250000
vt 0.625000 0.000000
vt 0.575000 0.500000
vt 0.625000 0.500000
vt 0.575000 0.750000
vt 0.625000 0.750000
vt 0.575000 1.000000
vt 0.625000 1.000000
vt 0.625000 0.250000
vt 0.625000 0.000000
vt 0.375000 0.750000
vt 0.375000 1.000000
vt 0.425000 1.000000
vt 0.425000 0.750000
vt 0.475000 1.000000
vt 0.475000 0.750000
vt 0.525000 1.000000
vt 0.525000 0.750000
vt 0.375000 0.500000
vt 0.425000 0.500000
vt 0.475000 0.500000
vt 0.525000 0.500000
vt 0.375000 0.250000
vt 0.425000 0.250000
vt 0.475000 0.250000
vt 0.525000 0.250000
vt 0.375000 0.000000
vt 0.425000 0.000000
vt 0.475000 0.000000
vt 0.525000 0.000000
vt 0.625000 0.500000
vt 0.875000 0.500000
vt 0.875000 0.750000
vt 0.625000 0.750000
vt 0.625000 0.500000
vt 0.625000 0.750000
vt 0.875000 0.750000
vt 0.875000 0.500000
vt 0.625000 1.000000
vt 0.625000 1.000000
vn 0.9978 0.0665 0.0000
vn 0.0000 0.0000 1.0000
vn -0.9978 -0.0665 0.0000
vn 0.0000 0.0000 -1.0000
vn 0.9981 0.0612 0.0000
vn 0.0000 -1.0000 0.0000
vn 0.0000 1.0000 0.0000
vn -0.9981 -0.0612 0.0000
g Cube.001_Cube.022_None
usemtl None
s off
f 52/63/27 42/64/27 44/65/27 53/66/27
f 53/66/28 44/65/28 48/67/28 57/68/28
f 57/68/29 48/67/29 46/69/29 61/70/29
f 61/70/30 46/69/30 42/71/30 52/72/30
f 44/65/31 42/64/31 89/73/31 90/74/31
f 45/75/30 64/76/30 49/77/30 41/78/30
f 64/76/30 63/79/30 50/80/30 49/77/30
f 63/79/30 62/81/30 51/82/30 50/80/30
f 62/81/30 61/70/30 52/72/30 51/82/30
f 47/83/29 60/84/29 64/76/29 45/75/29
f 60/84/29 59/85/29 63/79/29 64/76/29
f 59/85/29 58/86/29 62/81/29 63/79/29
f 58/86/29 57/68/29 61/70/29 62/81/29
f 43/87/28 56/88/28 60/84/28 47/83/28
f 55/89/28 54/90/28 58/86/28 59/85/28
f 41/91/27 49/92/27 56/88/27 43/87/27
f 49/92/27 50/93/27 55/89/27 56/88/27
f 50/93/27 51/94/27 54/90/27 55/89/27
f 51/94/27 52/63/27 53/66/27 54/90/27
f 76/95/27 77/96/27 68/97/27 66/98/27
f 77/96/30 81/99/30 72/100/30 68/97/30
f 81/99/29 85/101/29 70/102/29 72/100/29
f 85/101/28 76/103/28 66/104/28 70/102/28
f 66/98/31 68/97/31 94/105/31 93/106/31
f 69/107/28 65/108/28 73/109/28 88/110/28
f 88/110/28 73/109/28 74/111/28 87/112/28
f 87/112/28 74/111/28 75/113/28 86/114/28
f 86/114/28 75/113/28 76/103/28 85/101/28
f 71/115/29 69/107/29 88/110/29 84/116/29
f 84/116/29 88/110/29 87/112/29 83/117/29
f 83/117/29 87/112/29 86/114/29 82/118/29
f 82/118/29 86/114/29 85/101/29 81/99/29
f 67/119/30 71/115/30 84/116/30 80/120/30
f 79/121/30 83/117/30 82/118/30 78/122/30
f 65/123/27 67/119/27 80/120/27 73/124/27
f 73/124/27 80/120/27 79/121/27 74/125/27
f 74/125/27 79/121/27 78/122/27 75/126/27
f 75/126/27 78/122/27 77/96/27 76/95/27
f 58/86/29 82/118/29 81/99/29 57/68/29
f 58/86/32 54/90/32 78/122/32 82/118/32
f 54/90/27 53/66/27 77/96/27 78/122/27
f 57/68/33 81/99/33 77/96/33 53/66/33
f 59/85/33 83/117/33 79/121/33 55/89/33
f 60/84/29 84/116/29 83/117/29 59/85/29
f 60/84/32 56/88/32 80/120/32 84/116/32
f 56/88/27 55/89/27 79/121/27 80/120/27
f 91/127/33 90/128/33 89/129/33 92/130/33
f 95/131/33 96/132/33 93/133/33 94/134/33
f 70/102/28 66/104/28 93/135/28 96/132/28
f 42/71/30 46/69/30 92/130/30 89/136/30
f 72/100/34 95/131/34 91/127/34 48/67/34
f 91/127/33 95/131/33 94/134/33 90/128/33
f 72/100/34 70/102/34 96/132/34 95/131/34
f 46/69/34 48/67/34 91/127/34 92/130/34
f 48/67/32 44/65/32 68/97/32 72/100/32
f 68/97/31 44/65/31 90/74/31 94/134/31
