# Blender v2.80 (sub 46) OBJ File: 'Building Assets.blend'
# www.blender.org
mtllib TV.mtl
o TV_Cube.001
v -1.000000 -1.000000 5.000000
v -1.000000 5.000000 5.000000
v -1.000000 -1.000000 -5.000000
v -1.000000 5.000000 -5.000000
v -0.900000 -1.000000 5.000000
v -0.900000 5.000000 5.000000
v -0.900000 -1.000000 -5.000000
v -0.900000 5.000000 -5.000000
vt 0.375000 0.000000
vt 0.625000 0.000000
vt 0.625000 0.250000
vt 0.375000 0.250000
vt 0.625000 0.500000
vt 0.375000 0.500000
vt 0.375000 0.750000
vt 0.625000 0.750000
vt 0.625000 1.000000
vt 0.375000 1.000000
vt 0.125000 0.500000
vt 0.125000 0.750000
vt 0.875000 0.500000
vt 0.875000 0.750000
vn -1.0000 0.0000 0.0000
vn 0.0000 0.0000 -1.0000
vn 0.0000 0.0000 1.0000
vn 0.0000 -1.0000 0.0000
vn 0.0000 1.0000 0.0000
vn 1.0000 0.0000 0.0000
g TV_Cube.001_TV-Black
usemtl TV-Black
s off
f 1/1/1 2/2/1 4/3/1 3/4/1
f 3/4/2 4/3/2 8/5/2 7/6/2
f 5/7/3 6/8/3 2/9/3 1/10/3
f 3/11/4 7/6/4 5/7/4 1/12/4
f 8/5/5 4/13/5 2/14/5 6/8/5
g TV_Cube.001_TV-Screen
usemtl TV-Screen
f 7/6/6 8/5/6 6/8/6 5/7/6
