# Blender v2.80 (sub 46) OBJ File: 'Road Signs.blend'
# www.blender.org
mtllib Light Pole.mtl
o Pole.001_Cylinder.003
v 0.000000 -0.013559 -0.576555
v 0.000000 3.560244 -0.576555
v 0.407686 -0.013559 -0.407686
v 0.407686 3.560244 -0.407686
v 0.576555 -0.013559 0.000000
v 0.576555 3.560244 0.000000
v 0.407686 -0.013559 0.407686
v 0.407686 3.560244 0.407686
v -0.000000 -0.013559 0.576555
v -0.000000 3.560244 0.576555
v -0.407686 -0.013559 0.407686
v -0.407686 3.560244 0.407686
v -0.576555 -0.013559 -0.000000
v -0.576555 3.560244 -0.000000
v -0.407686 -0.013559 -0.407686
v -0.407686 3.560244 -0.407686
v 0.228477 3.868729 -0.228477
v 0.000000 3.868729 -0.323115
v 0.323115 3.868729 0.000000
v 0.228477 3.868729 0.228477
v 0.000000 3.868729 0.323115
v -0.228477 3.868729 0.228477
v -0.323115 3.868729 -0.000000
v -0.228477 3.868729 -0.228477
v 0.228476 21.172562 -0.228477
v -0.000001 21.172562 -0.323115
v 0.323114 21.172562 0.000000
v 0.228476 21.172562 0.228477
v -0.000001 21.172562 0.323115
v -0.228478 21.172562 0.228477
v -0.323116 21.172562 -0.000000
v -0.228478 21.172562 -0.228477
vt 1.000000 0.500000
vt 1.000000 1.000000
vt 0.875000 1.000000
vt 0.875000 0.500000
vt 0.750000 1.000000
vt 0.750000 0.500000
vt 0.625000 1.000000
vt 0.625000 0.500000
vt 0.500000 1.000000
vt 0.500000 0.500000
vt 0.375000 1.000000
vt 0.375000 0.500000
vt 0.250000 1.000000
vt 0.250000 0.500000
vt 0.625000 1.000000
vt 0.500000 1.000000
vt 0.125000 1.000000
vt 0.125000 0.500000
vt 0.000000 1.000000
vt 0.000000 0.500000
vt 0.750000 0.490000
vt 0.919706 0.419706
vt 0.990000 0.250000
vt 0.919706 0.080294
vt 0.750000 0.010000
vt 0.580294 0.080294
vt 0.510000 0.250000
vt 0.580294 0.419706
vt 0.000000 1.000000
vt 0.125000 1.000000
vt 0.125000 1.000000
vt 0.000000 1.000000
vt 0.250000 1.000000
vt 0.875000 1.000000
vt 0.750000 1.000000
vt 0.375000 1.000000
vt 1.000000 1.000000
vt 0.375000 1.000000
vt 0.250000 1.000000
vt 0.625000 1.000000
vt 0.500000 1.000000
vt 0.875000 1.000000
vt 0.750000 1.000000
vt 1.000000 1.000000
vn 0.3827 0.0000 -0.9239
vn 0.9239 0.0000 -0.3827
vn 0.9239 0.0000 0.3827
vn 0.3827 0.0000 0.9239
vn -0.3827 0.0000 0.9239
vn -0.9239 0.0000 0.3827
vn 0.3048 0.6046 0.7359
vn -0.9239 0.0000 -0.3827
vn -0.3827 0.0000 -0.9239
vn 0.0000 -1.0000 0.0000
vn -0.7359 0.6046 -0.3048
vn 0.7359 0.6046 -0.3048
vn -0.3048 0.6046 0.7359
vn -0.3048 0.6046 -0.7359
vn 0.3048 0.6046 -0.7359
vn 0.7359 0.6046 0.3048
vn -0.7359 0.6046 0.3048
g Pole.001_Cylinder.003_Pole
usemtl Pole
s off
f 1/1/1 2/2/1 4/3/1 3/4/1
f 3/4/2 4/3/2 6/5/2 5/6/2
f 5/6/3 6/5/3 8/7/3 7/8/3
f 7/8/4 8/7/4 10/9/4 9/10/4
f 9/10/5 10/9/5 12/11/5 11/12/5
f 11/12/6 12/11/6 14/13/6 13/14/6
f 10/9/7 8/7/7 20/15/7 21/16/7
f 13/14/8 14/13/8 16/17/8 15/18/8
f 15/18/9 16/17/9 2/19/9 1/20/9
f 1/21/10 3/22/10 5/23/10 7/24/10 9/25/10 11/26/10 13/27/10 15/28/10
f 18/29/9 24/30/9 32/31/9 26/32/9
f 16/17/11 14/13/11 23/33/11 24/30/11
f 6/5/12 4/3/12 17/34/12 19/35/12
f 12/11/13 10/9/13 21/16/13 22/36/13
f 2/19/14 16/17/14 24/30/14 18/29/14
f 4/3/15 2/2/15 18/37/15 17/34/15
f 8/7/16 6/5/16 19/35/16 20/15/16
f 14/13/17 12/11/17 22/36/17 23/33/17
f 23/33/6 22/36/6 30/38/6 31/39/6
f 21/16/4 20/15/4 28/40/4 29/41/4
f 19/35/2 17/34/2 25/42/2 27/43/2
f 24/30/8 23/33/8 31/39/8 32/31/8
f 22/36/5 21/16/5 29/41/5 30/38/5
f 20/15/3 19/35/3 27/43/3 28/40/3
f 17/34/1 18/37/1 26/44/1 25/42/1
o Cube.004_Cube.008
v -0.779833 21.168726 1.308704
v -0.779833 21.624395 1.308704
v -0.350870 21.168726 -0.581392
v -0.350870 21.624395 -0.581392
v 0.779833 21.168726 1.308704
v 0.779833 21.624395 1.308704
v 0.346166 21.168726 -0.581392
v 0.346166 21.624395 -0.581392
v -0.581392 21.168726 0.000000
v -0.581392 21.624395 0.000000
v 0.581392 21.168726 0.000000
v 0.581392 21.624395 0.000000
v -0.498391 21.168726 2.200682
v -0.498391 21.624395 2.200682
v 0.498391 21.168726 2.200682
v 0.498391 21.624395 2.200682
v -0.155307 21.168726 2.443435
v -0.155307 21.624395 2.443435
v 0.155307 21.168726 2.443435
v 0.155307 21.624395 2.443435
v -0.002352 21.168726 -0.581392
v -0.002352 21.624395 -0.581392
v 0.000000 21.168726 1.308704
v 0.000000 21.833277 1.308704
v 0.000000 21.720367 0.000000
v 0.000000 21.168726 0.000000
v 0.000000 21.168726 2.200682
v 0.000000 21.759886 2.200682
v 0.000000 21.168726 2.443435
v 0.000000 21.624395 2.443435
v 0.000000 21.168915 1.338092
v 0.728447 21.168915 1.338092
v 0.000000 21.168915 2.171294
v 0.465550 21.168915 2.171294
v -0.465550 21.168915 2.171294
v -0.728447 21.168915 1.338092
v 0.000000 21.257395 1.338092
v 0.728447 21.257395 1.338092
v 0.000000 21.257395 2.171294
v 0.465550 21.257395 2.171294
v -0.465550 21.257395 2.171294
v -0.728447 21.257395 1.338092
vt 0.375000 0.125000
vt 0.625000 0.125000
vt 0.625000 0.250000
vt 0.375000 0.250000
vt 0.375000 0.375000
vt 0.625000 0.375000
vt 0.625000 0.500000
vt 0.375000 0.500000
vt 0.375000 0.625000
vt 0.625000 0.625000
vt 0.625000 0.750000
vt 0.375000 0.750000
vt 0.375000 0.750000
vt 0.250000 0.750000
vt 0.250000 0.750000
vt 0.375000 0.750000
vt 0.250000 0.625000
vt 0.250000 0.750000
vt 0.750000 0.625000
vt 0.875000 0.625000
vt 0.875000 0.750000
vt 0.750000 0.750000
vt 0.750000 0.500000
vt 0.875000 0.500000
vt 0.250000 0.500000
vt 0.375000 0.000000
vt 0.625000 0.000000
vt 0.625000 0.750000
vt 0.625000 0.750000
vt 0.375000 0.750000
vt 0.875000 0.750000
vt 0.750000 0.750000
vt 0.375000 0.000000
vt 0.625000 0.000000
vt 0.375000 0.875000
vt 0.625000 0.875000
vt 0.625000 1.000000
vt 0.375000 1.000000
vt 0.250000 0.750000
vt 0.375000 0.000000
vt 0.625000 0.000000
vt 0.875000 0.750000
vt 0.750000 0.750000
vt 0.125000 0.750000
vt 0.125000 0.750000
vt 0.125000 0.500000
vt 0.125000 0.625000
vt 0.125000 0.750000
vt 0.375000 0.750000
vt 0.250000 0.750000
vt 0.375000 0.750000
vt 0.375000 0.000000
vt 0.375000 0.000000
vt 0.375000 0.000000
vt 0.375000 0.000000
vt 0.125000 0.750000
vt 0.250000 0.750000
vt 0.125000 0.750000
vt 0.250000 0.750000
vt 0.375000 0.750000
vt 0.125000 0.750000
vt 0.125000 0.750000
vn -0.9296 0.0000 -0.3686
vn 0.0000 0.0000 -1.0000
vn 0.9887 0.0000 -0.1499
vn 0.0000 -1.0000 -0.0065
vn 0.0000 -1.0000 0.0000
vn -0.2182 0.9742 -0.0586
vn -0.1021 0.9896 -0.1017
vn 0.9270 0.0000 -0.3751
vn -0.9887 0.0000 -0.1499
vn 0.5776 0.0000 0.8163
vn -0.2593 0.9624 0.0805
vn 0.9537 0.0000 0.3009
vn -0.9537 0.0000 0.3009
vn 0.0000 0.0000 1.0000
vn -0.5776 0.0000 0.8163
vn -0.1873 0.9039 0.3846
vn 0.1873 0.9039 0.3846
vn 0.2593 0.9624 0.0805
vn 0.1021 0.9895 -0.1025
vn 0.2182 0.9742 -0.0586
vn -0.0045 -1.0000 -0.0014
vn 0.9537 0.0000 -0.3009
vn 0.0000 -1.0000 0.0064
vn 0.0045 -1.0000 -0.0014
vn -0.9537 0.0000 -0.3009
g Cube.004_Cube.008_Pole
usemtl Pole
s off
f 41/45/18 42/46/18 36/47/18 35/48/18
f 53/49/19 54/50/19 40/51/19 39/52/19
f 43/53/20 44/54/20 38/55/20 37/56/20
f 47/57/21 59/58/21 65/59/21 66/60/21
f 58/61/22 43/53/22 37/56/22 55/62/22
f 57/63/23 42/64/23 34/65/23 56/66/23
f 54/67/24 36/68/24 42/64/24 57/63/24
f 53/69/22 39/52/22 43/53/22 58/61/22
f 39/52/25 40/51/25 44/54/25 43/53/25
f 33/70/26 34/71/26 42/46/26 41/45/26
f 47/57/27 48/72/27 52/73/27 51/74/27
f 56/66/28 34/65/28 46/75/28 60/76/28
f 37/56/29 38/55/29 48/72/29 47/57/29
f 34/71/30 33/70/30 45/77/30 46/78/30
f 61/79/31 62/80/31 50/81/31 49/82/31
f 59/58/22 47/57/22 51/74/22 61/83/22
f 46/78/32 45/77/32 49/84/32 50/85/32
f 60/76/33 46/75/33 50/86/33 62/87/33
f 48/72/34 60/76/34 62/87/34 52/73/34
f 45/88/22 59/58/22 61/83/22 49/89/22
f 51/74/31 52/73/31 62/80/31 61/79/31
f 38/55/35 56/66/35 60/76/35 48/72/35
f 35/90/22 53/69/22 58/61/22 41/91/22
f 40/51/36 54/67/36 57/63/36 44/54/36
f 44/54/37 57/63/37 56/66/37 38/55/37
f 41/91/22 58/61/22 55/62/22 33/92/22
f 37/56/38 47/57/38 66/60/38 64/93/38
f 35/48/19 36/47/19 54/50/19 53/49/19
f 66/60/19 65/59/19 71/94/19 72/95/19
f 67/96/39 68/97/39 74/98/39 73/99/39
f 59/58/21 45/88/21 67/100/21 65/59/21
f 33/92/40 55/62/40 63/101/40 68/102/40
f 45/77/41 33/70/41 68/97/41 67/96/41
f 55/62/40 37/56/40 64/93/40 63/101/40
f 69/103/22 70/104/22 72/95/22 71/94/22
f 74/105/22 69/103/22 71/94/22 73/106/22
f 68/102/31 63/101/31 69/103/31 74/105/31
f 64/93/42 66/60/42 72/95/42 70/104/42
f 63/101/31 64/93/31 70/104/31 69/103/31
f 65/59/19 67/100/19 73/106/19 71/94/19
