# Blender v2.80 (sub 46) OBJ File: 'Road Signs.blend'
# www.blender.org
mtllib Stop Sign.mtl
o Pole_Cylinder
v 0.000000 -0.013559 -0.576555
v 0.000000 3.560244 -0.576555
v 0.407686 -0.013559 -0.407686
v 0.407686 3.560244 -0.407686
v 0.576555 -0.013559 0.000000
v 0.576555 3.560244 0.000000
v 0.407686 -0.013559 0.407686
v 0.407686 3.560244 0.407686
v -0.000000 -0.013559 0.576555
v -0.000000 3.560244 0.576555
v -0.407686 -0.013559 0.407686
v -0.407686 3.560244 0.407686
v -0.576555 -0.013559 -0.000000
v -0.576555 3.560244 -0.000000
v -0.407686 -0.013559 -0.407686
v -0.407686 3.560244 -0.407686
v 0.228477 3.868729 -0.228477
v 0.000000 3.868729 -0.323115
v 0.323115 3.868729 0.000000
v 0.228477 3.868729 0.228477
v 0.000000 3.868729 0.323115
v -0.228477 3.868729 0.228477
v -0.323115 3.868729 -0.000000
v -0.228477 3.868729 -0.228477
v 0.228476 10.964583 -0.228477
v -0.000001 10.964583 -0.323115
v 0.323114 10.964583 0.000000
v 0.228476 10.964583 0.228477
v -0.000001 10.964583 0.323115
v -0.228478 10.964583 0.228477
v -0.323116 10.964583 -0.000000
v -0.228478 10.964583 -0.228477
vt 1.000000 0.500000
vt 1.000000 1.000000
vt 0.875000 1.000000
vt 0.875000 0.500000
vt 0.750000 1.000000
vt 0.750000 0.500000
vt 0.625000 1.000000
vt 0.625000 0.500000
vt 0.500000 1.000000
vt 0.500000 0.500000
vt 0.375000 1.000000
vt 0.375000 0.500000
vt 0.250000 1.000000
vt 0.250000 0.500000
vt 0.625000 1.000000
vt 0.500000 1.000000
vt 0.125000 1.000000
vt 0.125000 0.500000
vt 0.000000 1.000000
vt 0.000000 0.500000
vt 0.750000 0.490000
vt 0.919706 0.419706
vt 0.990000 0.250000
vt 0.919706 0.080294
vt 0.750000 0.010000
vt 0.580294 0.080294
vt 0.510000 0.250000
vt 0.580294 0.419706
vt 0.000000 1.000000
vt 0.125000 1.000000
vt 0.125000 1.000000
vt 0.000000 1.000000
vt 0.250000 1.000000
vt 0.875000 1.000000
vt 0.750000 1.000000
vt 0.375000 1.000000
vt 1.000000 1.000000
vt 0.375000 1.000000
vt 0.250000 1.000000
vt 0.625000 1.000000
vt 0.500000 1.000000
vt 0.875000 1.000000
vt 0.750000 1.000000
vt 1.000000 1.000000
vn 0.3827 0.0000 -0.9239
vn 0.9239 0.0000 -0.3827
vn 0.9239 0.0000 0.3827
vn 0.3827 0.0000 0.9239
vn -0.3827 0.0000 0.9239
vn -0.9239 0.0000 0.3827
vn 0.3048 0.6046 0.7359
vn -0.9239 0.0000 -0.3827
vn -0.3827 0.0000 -0.9239
vn 0.0000 -1.0000 0.0000
vn -0.7359 0.6046 -0.3048
vn 0.7359 0.6046 -0.3048
vn -0.3048 0.6046 0.7359
vn -0.3048 0.6046 -0.7359
vn 0.3048 0.6046 -0.7359
vn 0.7359 0.6046 0.3048
vn -0.7359 0.6046 0.3048
g Pole_Cylinder_Pole
usemtl Pole
s off
f 1/1/1 2/2/1 4/3/1 3/4/1
f 3/4/2 4/3/2 6/5/2 5/6/2
f 5/6/3 6/5/3 8/7/3 7/8/3
f 7/8/4 8/7/4 10/9/4 9/10/4
f 9/10/5 10/9/5 12/11/5 11/12/5
f 11/12/6 12/11/6 14/13/6 13/14/6
f 10/9/7 8/7/7 20/15/7 21/16/7
f 13/14/8 14/13/8 16/17/8 15/18/8
f 15/18/9 16/17/9 2/19/9 1/20/9
f 1/21/10 3/22/10 5/23/10 7/24/10 9/25/10 11/26/10 13/27/10 15/28/10
f 18/29/9 24/30/9 32/31/9 26/32/9
f 16/17/11 14/13/11 23/33/11 24/30/11
f 6/5/12 4/3/12 17/34/12 19/35/12
f 12/11/13 10/9/13 21/16/13 22/36/13
f 2/19/14 16/17/14 24/30/14 18/29/14
f 4/3/15 2/2/15 18/37/15 17/34/15
f 8/7/16 6/5/16 19/35/16 20/15/16
f 14/13/17 12/11/17 22/36/17 23/33/17
f 23/33/6 22/36/6 30/38/6 31/39/6
f 21/16/4 20/15/4 28/40/4 29/41/4
f 19/35/2 17/34/2 25/42/2 27/43/2
f 24/30/8 23/33/8 31/39/8 32/31/8
f 22/36/5 21/16/5 29/41/5 30/38/5
f 20/15/3 19/35/3 27/43/3 28/40/3
f 17/34/1 18/37/1 26/44/1 25/42/1
o Light.001_Cube.001
v -0.587182 11.139394 1.214760
v -0.587182 11.592747 1.214760
v -0.351956 10.983055 -0.576425
v -0.351956 11.592747 -0.576425
v 0.587182 11.139394 1.214760
v 0.587182 11.592747 1.214760
v 0.342547 10.983055 -0.576425
v 0.342547 11.592747 -0.576425
v -0.587182 10.983055 0.000000
v -0.587182 11.592747 0.000000
v 0.587182 10.983055 0.000000
v 0.587182 11.592747 0.000000
v -0.587182 10.983055 2.015474
v -0.587182 11.429100 2.015474
v 0.587182 11.429100 2.015474
v 0.587182 10.983055 2.015474
v -1.626464 11.139393 1.214760
v -1.626464 11.592747 1.214760
v 1.626464 11.592747 1.214760
v 1.626464 11.139393 1.214760
v -1.626464 10.983055 2.015474
v -1.626464 11.429101 2.015474
v 1.626464 11.429101 2.015474
v 1.626464 10.983055 2.015474
vt 0.375000 0.125000
vt 0.625000 0.125000
vt 0.625000 0.250000
vt 0.375000 0.250000
vt 0.625000 0.500000
vt 0.375000 0.500000
vt 0.375000 0.625000
vt 0.625000 0.625000
vt 0.625000 0.750000
vt 0.375000 0.750000
vt 0.625000 0.750000
vt 0.375000 0.750000
vt 0.375000 0.750000
vt 0.625000 0.750000
vt 0.125000 0.625000
vt 0.125000 0.750000
vt 0.875000 0.625000
vt 0.875000 0.750000
vt 0.875000 0.500000
vt 0.125000 0.500000
vt 0.375000 0.000000
vt 0.625000 0.000000
vt 0.625000 1.000000
vt 0.375000 1.000000
vt 0.875000 0.750000
vt 0.375000 0.000000
vt 0.625000 0.000000
vt 0.375000 0.000000
vt 0.625000 0.000000
vt 0.375000 0.750000
vt 0.625000 0.750000
vt 0.625000 1.000000
vt 0.375000 1.000000
vt 0.875000 0.750000
vt 0.875000 0.750000
vt 0.125000 0.750000
vt 0.125000 0.750000
vt 0.125000 0.750000
vn -0.9259 0.0000 -0.3778
vn 0.0000 0.0000 -1.0000
vn 1.0000 0.0000 0.0000
vn 0.0000 0.0000 1.0000
vn 0.0000 -0.9918 0.1276
vn 0.0000 1.0000 0.0000
vn 0.0000 -1.0000 0.0000
vn 0.9205 0.0000 -0.3907
vn -1.0000 0.0000 0.0000
vn 0.0000 0.9797 0.2002
vn 0.0000 -0.9815 -0.1916
g Light.001_Cube.001_Light.001
usemtl Light.001
s off
f 41/45/18 42/46/18 36/47/18 35/48/18
f 35/48/19 36/47/19 40/49/19 39/50/19
f 43/51/20 44/52/20 38/53/20 37/54/20
f 47/55/21 48/56/21 56/57/21 55/58/21
f 41/59/22 43/51/22 37/54/22 33/60/22
f 44/52/23 42/61/23 34/62/23 38/53/23
f 40/49/23 36/63/23 42/61/23 44/52/23
f 35/64/24 39/50/24 43/51/24 41/59/24
f 39/50/25 40/49/25 44/52/25 43/51/25
f 33/65/26 34/66/26 42/46/26 41/45/26
f 48/56/21 47/55/21 46/67/21 45/68/21
f 38/53/27 34/62/27 46/69/27 47/55/27
f 34/66/19 33/65/19 49/70/19 50/71/19
f 50/71/26 49/70/26 53/72/26 54/73/26
f 52/74/20 51/75/20 55/58/20 56/57/20
f 37/54/19 38/53/19 51/75/19 52/74/19
f 45/68/21 46/67/21 54/76/21 53/77/21
f 38/53/27 47/55/27 55/58/27 51/75/27
f 46/69/27 34/62/27 50/78/27 54/79/27
g Light.001_Cube.001_Light
usemtl Light
f 33/60/28 37/54/28 48/56/28 45/80/28
f 48/56/28 37/54/28 52/74/28 56/57/28
f 33/60/28 45/80/28 53/81/28 49/82/28
o Stop_Cylinder.004
v -0.702628 10.384984 0.358352
v -0.702628 10.384984 0.648351
v 0.702628 10.384984 0.358351
v 0.702628 10.384984 0.648351
v 1.405256 9.167996 0.358351
v 1.405256 9.167996 0.648351
v 0.702628 7.951009 0.358351
v 0.702628 7.951009 0.648351
v -0.702628 7.951009 0.358351
v -0.702628 7.951009 0.648351
v -1.405256 9.167996 0.358351
v -1.405256 9.167996 0.648351
vt 1.000000 0.500000
vt 1.000000 1.000000
vt 0.833333 1.000000
vt 0.833333 0.500000
vt 0.666667 1.000000
vt 0.666667 0.500000
vt 0.500000 1.000000
vt 0.500000 0.500000
vt 0.333333 1.000000
vt 0.333333 0.500000
vt 0.457846 0.370000
vt 0.250000 0.490000
vt 0.042154 0.370000
vt 0.042154 0.130000
vt 0.250000 0.010000
vt 0.457846 0.130000
vt 0.166667 1.000000
vt 0.166667 0.500000
vt -0.000000 1.000000
vt -0.000000 0.500000
vt 0.750000 0.490000
vt 0.957846 0.370000
vt 0.957846 0.130000
vt 0.750000 0.010000
vt 0.542154 0.130000
vt 0.542154 0.370000
vn 0.0000 1.0000 0.0000
vn 0.8660 0.5000 0.0000
vn 0.8660 -0.5000 0.0000
vn -0.0000 -1.0000 0.0000
vn -0.0000 -0.0000 1.0000
vn -0.8660 -0.5000 0.0000
vn -0.8660 0.5000 0.0000
vn -0.0000 0.0000 -1.0000
g Stop_Cylinder.004_Stop
usemtl Stop
s off
f 57/83/29 58/84/29 60/85/29 59/86/29
f 59/86/30 60/85/30 62/87/30 61/88/30
f 61/88/31 62/87/31 64/89/31 63/90/31
f 63/90/32 64/89/32 66/91/32 65/92/32
f 60/93/33 58/94/33 68/95/33 66/96/33 64/97/33 62/98/33
f 65/92/34 66/91/34 68/99/34 67/100/34
f 67/100/35 68/99/35 58/101/35 57/102/35
f 57/103/36 59/104/36 61/105/36 63/106/36 65/107/36 67/108/36
