# Blender v2.80 (sub 46) OBJ File: 'Road Signs.blend'
# www.blender.org
mtllib Traffic Light.mtl
o Pole.002_Cylinder.001
v 0.000000 0.986441 -0.576555
v 0.000000 4.560244 -0.576555
v 0.407686 0.986441 -0.407686
v 0.407686 4.560244 -0.407686
v 0.576555 0.986441 0.000000
v 0.576555 4.560244 0.000000
v 0.407686 0.986441 0.407686
v 0.407686 4.560244 0.407686
v -0.000000 0.986441 0.576555
v -0.000000 4.560244 0.576555
v -0.407686 0.986441 0.407686
v -0.407686 4.560244 0.407686
v -0.576555 0.986441 -0.000000
v -0.576555 4.560244 -0.000000
v -0.407686 0.986441 -0.407686
v -0.407686 4.560244 -0.407686
v 0.228477 4.868729 -0.228477
v 0.000000 4.868729 -0.323115
v 0.323115 4.868729 0.000000
v 0.228477 4.868729 0.228477
v 0.000000 4.868729 0.323115
v -0.228477 4.868729 0.228477
v -0.323115 4.868729 -0.000000
v -0.228477 4.868729 -0.228477
v 0.228476 16.172562 -0.228477
v -0.000001 16.172562 -0.323115
v 0.323114 16.172562 0.000000
v 0.228476 16.172562 0.228477
v -0.000001 16.172562 0.323115
v -0.228478 16.172562 0.228477
v -0.323116 16.172562 -0.000000
v -0.228478 16.172562 -0.228477
vt 1.000000 0.500000
vt 1.000000 1.000000
vt 0.875000 1.000000
vt 0.875000 0.500000
vt 0.750000 1.000000
vt 0.750000 0.500000
vt 0.625000 1.000000
vt 0.625000 0.500000
vt 0.500000 1.000000
vt 0.500000 0.500000
vt 0.375000 1.000000
vt 0.375000 0.500000
vt 0.250000 1.000000
vt 0.250000 0.500000
vt 0.625000 1.000000
vt 0.500000 1.000000
vt 0.125000 1.000000
vt 0.125000 0.500000
vt 0.000000 1.000000
vt 0.000000 0.500000
vt 0.750000 0.490000
vt 0.919706 0.419706
vt 0.990000 0.250000
vt 0.919706 0.080294
vt 0.750000 0.010000
vt 0.580294 0.080294
vt 0.510000 0.250000
vt 0.580294 0.419706
vt 0.000000 1.000000
vt 0.125000 1.000000
vt 0.125000 1.000000
vt 0.000000 1.000000
vt 0.250000 1.000000
vt 0.875000 1.000000
vt 0.750000 1.000000
vt 0.375000 1.000000
vt 1.000000 1.000000
vt 0.375000 1.000000
vt 0.250000 1.000000
vt 0.625000 1.000000
vt 0.500000 1.000000
vt 0.875000 1.000000
vt 0.750000 1.000000
vt 1.000000 1.000000
vn 0.3827 0.0000 -0.9239
vn 0.9239 0.0000 -0.3827
vn 0.9239 0.0000 0.3827
vn 0.3827 0.0000 0.9239
vn -0.3827 0.0000 0.9239
vn -0.9239 0.0000 0.3827
vn 0.3048 0.6046 0.7359
vn -0.9239 0.0000 -0.3827
vn -0.3827 0.0000 -0.9239
vn 0.0000 -1.0000 0.0000
vn -0.7359 0.6046 -0.3048
vn 0.7359 0.6046 -0.3048
vn -0.3048 0.6046 0.7359
vn -0.3048 0.6046 -0.7359
vn 0.3048 0.6046 -0.7359
vn 0.7359 0.6046 0.3048
vn -0.7359 0.6046 0.3048
vn 0.0000 1.0000 0.0000
g Pole.002_Cylinder.001_Pole.001
usemtl Pole.001
s off
f 1/1/1 2/2/1 4/3/1 3/4/1
f 3/4/2 4/3/2 6/5/2 5/6/2
f 5/6/3 6/5/3 8/7/3 7/8/3
f 7/8/4 8/7/4 10/9/4 9/10/4
f 9/10/5 10/9/5 12/11/5 11/12/5
f 11/12/6 12/11/6 14/13/6 13/14/6
f 10/9/7 8/7/7 20/15/7 21/16/7
f 13/14/8 14/13/8 16/17/8 15/18/8
f 15/18/9 16/17/9 2/19/9 1/20/9
f 1/21/10 3/22/10 5/23/10 7/24/10 9/25/10 11/26/10 13/27/10 15/28/10
f 18/29/9 24/30/9 32/31/9 26/32/9
f 16/17/11 14/13/11 23/33/11 24/30/11
f 6/5/12 4/3/12 17/34/12 19/35/12
f 12/11/13 10/9/13 21/16/13 22/36/13
f 2/19/14 16/17/14 24/30/14 18/29/14
f 4/3/15 2/2/15 18/37/15 17/34/15
f 8/7/16 6/5/16 19/35/16 20/15/16
f 14/13/17 12/11/17 22/36/17 23/33/17
f 23/33/6 22/36/6 30/38/6 31/39/6
f 21/16/4 20/15/4 28/40/4 29/41/4
f 19/35/2 17/34/2 25/42/2 27/43/2
f 24/30/8 23/33/8 31/39/8 32/31/8
f 22/36/5 21/16/5 29/41/5 30/38/5
f 20/15/3 19/35/3 27/43/3 28/40/3
f 17/34/1 18/37/1 26/44/1 25/42/1
f 25/42/18 26/32/18 32/31/18 31/39/18 30/38/18 29/41/18 28/40/18 27/43/18
o Holder_Pole_Cylinder.005
v 0.000000 15.526651 0.200000
v 0.000000 15.526651 -0.700000
v 0.173205 15.626651 0.200000
v 0.173205 15.626651 -0.700000
v 0.173205 15.826652 0.200000
v 0.173205 15.826652 -0.700000
v -0.000000 15.926651 0.200000
v -0.000000 15.926651 -0.700000
v -0.173205 15.826652 0.200000
v -0.173205 15.826652 -0.700000
v -0.173205 15.626651 0.200000
v -0.173205 15.626651 -0.700000
vt 1.000000 0.500000
vt 1.000000 1.000000
vt 0.833333 1.000000
vt 0.833333 0.500000
vt 0.666667 1.000000
vt 0.666667 0.500000
vt 0.500000 1.000000
vt 0.500000 0.500000
vt 0.333333 1.000000
vt 0.333333 0.500000
vt 0.457846 0.370000
vt 0.250000 0.490000
vt 0.042154 0.370000
vt 0.042154 0.130000
vt 0.250000 0.010000
vt 0.457846 0.130000
vt 0.166667 1.000000
vt 0.166667 0.500000
vt -0.000000 1.000000
vt -0.000000 0.500000
vn 0.5000 -0.8660 0.0000
vn 1.0000 0.0000 0.0000
vn 0.5000 0.8660 0.0000
vn -0.5000 0.8660 0.0000
vn 0.0000 0.0000 -1.0000
vn -1.0000 0.0000 0.0000
vn -0.5000 -0.8660 0.0000
g Holder_Pole_Cylinder.005_Pole.001
usemtl Pole.001
s off
f 33/45/19 34/46/19 36/47/19 35/48/19
f 35/48/20 36/47/20 38/49/20 37/50/20
f 37/50/21 38/49/21 40/51/21 39/52/21
f 39/52/22 40/51/22 42/53/22 41/54/22
f 36/55/23 34/56/23 44/57/23 42/58/23 40/59/23 38/60/23
f 41/54/24 42/53/24 44/61/24 43/62/24
f 43/62/25 44/61/25 34/63/25 33/64/25
o Holder_Pole.001_Cylinder.006
v 0.000000 12.526651 0.200000
v 0.000000 12.526651 -0.700000
v 0.173205 12.626651 0.200000
v 0.173205 12.626651 -0.700000
v 0.173205 12.826652 0.200000
v 0.173205 12.826652 -0.700000
v -0.000000 12.926651 0.200000
v -0.000000 12.926651 -0.700000
v -0.173205 12.826652 0.200000
v -0.173205 12.826652 -0.700000
v -0.173205 12.626651 0.200000
v -0.173205 12.626651 -0.700000
vt 1.000000 0.500000
vt 1.000000 1.000000
vt 0.833333 1.000000
vt 0.833333 0.500000
vt 0.666667 1.000000
vt 0.666667 0.500000
vt 0.500000 1.000000
vt 0.500000 0.500000
vt 0.333333 1.000000
vt 0.333333 0.500000
vt 0.457846 0.370000
vt 0.250000 0.490000
vt 0.042154 0.370000
vt 0.042154 0.130000
vt 0.250000 0.010000
vt 0.457846 0.130000
vt 0.166667 1.000000
vt 0.166667 0.500000
vt -0.000000 1.000000
vt -0.000000 0.500000
vn 0.5000 -0.8660 0.0000
vn 1.0000 0.0000 0.0000
vn 0.5000 0.8660 0.0000
vn -0.5000 0.8660 0.0000
vn 0.0000 0.0000 -1.0000
vn -1.0000 0.0000 0.0000
vn -0.5000 -0.8660 0.0000
g Holder_Pole.001_Cylinder.006_Pole.002
usemtl Pole.002
s off
f 45/65/26 46/66/26 48/67/26 47/68/26
f 47/68/27 48/67/27 50/69/27 49/70/27
f 49/70/28 50/69/28 52/71/28 51/72/28
f 51/72/29 52/71/29 54/73/29 53/74/29
f 48/75/30 46/76/30 56/77/30 54/78/30 52/79/30 50/80/30
f 53/74/31 54/73/31 56/81/31 55/82/31
f 55/82/32 56/81/32 46/83/32 45/84/32
o Lightbox_Cube
v -0.500000 12.420000 -0.700000
v -0.500000 16.180000 -0.700000
v -0.500000 12.420000 -1.000000
v -0.500000 16.180000 -1.000000
v 0.500000 12.420000 -0.700000
v 0.500000 16.180000 -0.700000
v 0.500000 12.420000 -1.000000
v 0.500000 16.180000 -1.000000
v -0.500000 16.180000 -1.100000
v -0.500000 12.420000 -1.100000
v 0.500000 12.420000 -1.100000
v 0.500000 16.180000 -1.100000
v -0.641421 16.312937 -1.000000
v -0.641421 12.287064 -1.000000
v 0.641421 12.287064 -1.000000
v 0.641421 16.312937 -1.000000
v -0.641421 16.312937 -1.100000
v -0.641421 12.287064 -1.100000
v 0.641421 12.287064 -1.100000
v 0.641421 16.312937 -1.100000
vt 0.375000 0.000000
vt 0.625000 0.000000
vt 0.625000 0.250000
vt 0.375000 0.250000
vt 0.375000 0.500000
vt 0.625000 0.500000
vt 0.625000 0.750000
vt 0.375000 0.750000
vt 0.625000 1.000000
vt 0.375000 1.000000
vt 0.125000 0.500000
vt 0.125000 0.750000
vt 0.875000 0.500000
vt 0.875000 0.750000
vt 0.375000 0.250000
vt 0.625000 0.250000
vt 0.625000 0.500000
vt 0.375000 0.500000
vt 0.125000 0.500000
vt 0.375000 0.500000
vt 0.625000 0.500000
vt 0.125000 0.500000
vt 0.375000 0.500000
vt 0.875000 0.500000
vt 0.625000 0.500000
vt 0.875000 0.500000
vt 0.375000 0.250000
vt 0.625000 0.250000
vt 0.625000 0.250000
vt 0.375000 0.250000
vn -1.0000 0.0000 0.0000
vn 1.0000 0.0000 0.0000
vn 0.0000 0.0000 1.0000
vn 0.0000 -1.0000 0.0000
vn 0.0000 1.0000 0.0000
vn 0.0000 0.0000 -1.0000
g Lightbox_Cube_Black
usemtl Black
s off
f 57/85/33 58/86/33 60/87/33 59/88/33
f 63/89/34 64/90/34 62/91/34 61/92/34
f 61/92/35 62/91/35 58/93/35 57/94/35
f 59/95/36 63/89/36 61/92/36 57/96/36
f 64/90/37 60/97/37 58/98/37 62/91/37
f 66/99/38 65/100/38 68/101/38 67/102/38
f 63/89/35 59/95/35 70/103/35 71/104/35
f 64/90/35 63/89/35 71/104/35 72/105/35
f 71/104/36 70/103/36 74/106/36 75/107/36
f 69/108/37 72/105/37 76/109/37 73/110/37
f 70/111/33 69/112/33 73/113/33 74/114/33
f 72/105/34 71/104/34 75/107/34 76/109/34
f 60/97/35 64/90/35 72/105/35 69/108/35
f 59/88/35 60/87/35 69/112/35 70/111/35
g Lightbox_Cube_White
usemtl White
f 66/99/38 67/102/38 75/107/38 74/114/38
f 67/102/38 68/101/38 76/109/38 75/107/38
f 68/101/38 65/100/38 73/113/38 76/109/38
f 65/100/38 66/99/38 74/114/38 73/113/38
o Light_Holder_Cylinder.007
v 0.000000 13.550909 -2.102818
v 0.000000 13.550909 -1.090000
v 0.389711 13.325910 -1.722346
v 0.389711 13.325910 -1.090000
v 0.389711 12.875909 -1.254869
v 0.389711 12.875909 -1.090000
v -0.000000 12.650909 -1.136208
v -0.000000 12.650909 -1.090000
v -0.389711 12.875909 -1.254869
v -0.389711 12.875909 -1.090000
v -0.389711 13.325910 -1.722346
v -0.389711 13.325910 -1.090000
v -0.000000 13.640909 -2.102818
v 0.467654 13.370910 -1.722346
v 0.467654 13.370909 -1.090000
v -0.000000 13.640909 -1.090000
v 0.467654 12.830909 -1.254869
v 0.467654 12.830909 -1.090000
v -0.000000 12.560909 -1.136208
v -0.000000 12.560909 -1.090000
v -0.467654 12.830910 -1.254869
v -0.467654 12.830910 -1.090000
v -0.467654 13.370910 -1.722346
v -0.467654 13.370909 -1.090000
vt 0.750000 0.010000
vt 0.957846 0.130000
vt 0.957846 0.130000
vt 0.750000 0.010000
vt 0.957846 0.370000
vt 0.750000 0.490000
vt 0.750000 0.490000
vt 0.957846 0.370000
vt 0.000000 0.000000
vt 0.000000 0.000000
vt 0.000000 0.000000
vt 0.000000 0.000000
vt 0.542154 0.130000
vt 0.542154 0.130000
vt 0.542154 0.370000
vt 0.542154 0.370000
vt 0.000000 0.000000
vt 0.000000 0.000000
vt 1.000000 0.500000
vt 1.000000 1.000000
vt 0.833333 1.000000
vt 0.833333 0.500000
vt 0.666667 1.000000
vt 0.666667 0.500000
vt 0.500000 1.000000
vt 0.500000 0.500000
vt 0.333333 1.000000
vt 0.333333 0.500000
vt 0.166667 1.000000
vt 0.166667 0.500000
vt -0.000000 1.000000
vt -0.000000 0.500000
vt 0.000000 0.000000
vt 0.000000 0.000000
vt 0.000000 0.000000
vt 0.000000 0.000000
vt 0.000000 0.000000
vt 0.000000 0.000000
vn -0.2019 -0.1166 -0.9724
vn 0.5278 -0.3047 -0.7929
vn 0.0000 0.0000 1.0000
vn 0.2019 -0.1166 -0.9724
vn -0.0000 -0.6866 -0.7270
vn -0.5278 -0.3047 -0.7929
vn 0.5000 0.8660 0.0000
vn 1.0000 -0.0000 -0.0000
vn 0.5000 -0.8660 0.0000
vn -0.5000 -0.8660 0.0000
vn -1.0000 0.0000 0.0000
vn -0.5000 0.8660 0.0000
g Light_Holder_Cylinder.007_Black
usemtl Black
s off
f 83/115/39 81/116/39 93/117/39 95/118/39
f 79/119/40 77/120/40 89/121/40 90/122/40
f 88/123/41 78/124/41 92/125/41 100/126/41
f 85/127/42 83/115/42 95/118/42 97/128/42
f 87/129/43 85/127/43 97/128/43 99/130/43
f 77/120/44 87/129/44 99/130/44 89/121/44
f 83/115/45 85/127/45 86/131/45 84/132/45
f 89/133/45 92/134/45 91/135/45 90/136/45
f 90/136/46 91/135/46 94/137/46 93/138/46
f 93/138/47 94/137/47 96/139/47 95/140/47
f 95/140/48 96/139/48 98/141/48 97/142/48
f 97/142/49 98/141/49 100/143/49 99/144/49
f 99/144/50 100/143/50 92/145/50 89/146/50
f 86/131/41 88/123/41 100/126/41 98/147/41
f 81/116/43 79/119/43 90/122/43 93/117/43
f 84/132/41 86/131/41 98/147/41 96/148/41
f 78/124/41 80/149/41 91/150/41 92/125/41
f 82/151/41 84/132/41 96/148/41 94/152/41
f 80/149/41 82/151/41 94/152/41 91/150/41
f 85/127/46 87/129/46 88/123/46 86/131/46
f 87/129/47 77/120/47 78/124/47 88/123/47
f 77/120/48 79/119/48 80/149/48 78/124/48
f 79/119/49 81/116/49 82/151/49 80/149/49
f 81/116/50 83/115/50 84/132/50 82/151/50
o Light_Holder.001_Cylinder.008
v 0.000000 14.750909 -2.081427
v 0.000000 14.750909 -1.090000
v 0.389711 14.525909 -1.746687
v 0.389711 14.525909 -1.090000
v 0.389711 14.075909 -1.481556
v 0.389711 14.075909 -1.090000
v -0.000000 13.850909 -1.296602
v -0.000000 13.850909 -1.090000
v -0.389711 14.075909 -1.481556
v -0.389711 14.075909 -1.090000
v -0.389711 14.525909 -1.746687
v -0.389711 14.525909 -1.090000
v -0.000000 14.840909 -2.081427
v 0.467654 14.570910 -1.746687
v 0.467654 14.570910 -1.090000
v -0.000000 14.840909 -1.090000
v 0.467654 14.030909 -1.481556
v 0.467654 14.030909 -1.090000
v -0.000000 13.760909 -1.296602
v -0.000000 13.760909 -1.090000
v -0.467654 14.030910 -1.481556
v -0.467654 14.030909 -1.090000
v -0.467654 14.570910 -1.746687
v -0.467654 14.570909 -1.090000
vt 0.750000 0.010000
vt 0.957846 0.130000
vt 0.957846 0.130000
vt 0.750000 0.010000
vt 0.957846 0.370000
vt 0.750000 0.490000
vt 0.750000 0.490000
vt 0.957846 0.370000
vt 0.000000 0.000000
vt 0.000000 0.000000
vt 0.000000 0.000000
vt 0.000000 0.000000
vt 0.542154 0.130000
vt 0.542154 0.130000
vt 0.542154 0.370000
vt 0.542154 0.370000
vt 0.000000 0.000000
vt 0.000000 0.000000
vt 1.000000 0.500000
vt 1.000000 1.000000
vt 0.833333 1.000000
vt 0.833333 0.500000
vt 0.666667 1.000000
vt 0.666667 0.500000
vt 0.500000 1.000000
vt 0.500000 0.500000
vt 0.333333 1.000000
vt 0.333333 0.500000
vt 0.166667 1.000000
vt 0.166667 0.500000
vt -0.000000 1.000000
vt -0.000000 0.500000
vt 0.000000 0.000000
vt 0.000000 0.000000
vt 0.000000 0.000000
vt 0.000000 0.000000
vt 0.000000 0.000000
vt 0.000000 0.000000
vn -0.3031 -0.1750 -0.9367
vn 0.4851 -0.2801 -0.8284
vn 0.0000 0.0000 1.0000
vn 0.3031 -0.1750 -0.9367
vn -0.0000 -0.4722 -0.8815
vn -0.4851 -0.2801 -0.8284
vn 0.5000 0.8660 0.0000
vn 1.0000 -0.0000 0.0000
vn 0.5000 -0.8660 0.0000
vn -0.5000 -0.8660 -0.0000
vn -1.0000 0.0000 0.0000
vn -0.5000 0.8660 0.0000
g Light_Holder.001_Cylinder.008_Black.005
usemtl Black.005
s off
f 107/153/51 105/154/51 117/155/51 119/156/51
f 103/157/52 101/158/52 113/159/52 114/160/52
f 112/161/53 102/162/53 116/163/53 124/164/53
f 109/165/54 107/153/54 119/156/54 121/166/54
f 111/167/55 109/165/55 121/166/55 123/168/55
f 101/158/56 111/167/56 123/168/56 113/159/56
f 107/153/57 109/165/57 110/169/57 108/170/57
f 113/171/57 116/172/57 115/173/57 114/174/57
f 114/174/58 115/173/58 118/175/58 117/176/58
f 117/176/59 118/175/59 120/177/59 119/178/59
f 119/178/60 120/177/60 122/179/60 121/180/60
f 121/180/61 122/179/61 124/181/61 123/182/61
f 123/182/62 124/181/62 116/183/62 113/184/62
f 110/169/53 112/161/53 124/164/53 122/185/53
f 105/154/55 103/157/55 114/160/55 117/155/55
f 108/170/53 110/169/53 122/185/53 120/186/53
f 102/162/53 104/187/53 115/188/53 116/163/53
f 106/189/53 108/170/53 120/186/53 118/190/53
f 104/187/53 106/189/53 118/190/53 115/188/53
f 109/165/58 111/167/58 112/161/58 110/169/58
f 111/167/59 101/158/59 102/162/59 112/161/59
f 101/158/60 103/157/60 104/187/60 102/162/60
f 103/157/61 105/154/61 106/189/61 104/187/61
f 105/154/62 107/153/62 108/170/62 106/189/62
o Light_Holder.002_Cylinder.009
v 0.000000 15.950909 -2.081427
v 0.000000 15.950909 -1.090000
v 0.389711 15.725909 -1.746687
v 0.389711 15.725909 -1.090000
v 0.389711 15.275908 -1.481556
v 0.389711 15.275908 -1.090000
v -0.000000 15.050909 -1.296602
v -0.000000 15.050909 -1.090000
v -0.389711 15.275908 -1.481556
v -0.389711 15.275908 -1.090000
v -0.389711 15.725909 -1.746687
v -0.389711 15.725909 -1.090000
v -0.000000 16.040909 -2.081427
v 0.467654 15.770909 -1.746687
v 0.467654 15.770908 -1.090000
v -0.000000 16.040909 -1.090000
v 0.467654 15.230909 -1.481556
v 0.467654 15.230908 -1.090000
v -0.000000 14.960909 -1.296602
v -0.000000 14.960909 -1.090000
v -0.467654 15.230909 -1.481556
v -0.467654 15.230909 -1.090000
v -0.467654 15.770909 -1.746687
v -0.467654 15.770908 -1.090000
vt 0.750000 0.010000
vt 0.957846 0.130000
vt 0.957846 0.130000
vt 0.750000 0.010000
vt 0.957846 0.370000
vt 0.750000 0.490000
vt 0.750000 0.490000
vt 0.957846 0.370000
vt 0.000000 0.000000
vt 0.000000 0.000000
vt 0.000000 0.000000
vt 0.000000 0.000000
vt 0.542154 0.130000
vt 0.542154 0.130000
vt 0.542154 0.370000
vt 0.542154 0.370000
vt 0.000000 0.000000
vt 0.000000 0.000000
vt 1.000000 0.500000
vt 1.000000 1.000000
vt 0.833333 1.000000
vt 0.833333 0.500000
vt 0.666667 1.000000
vt 0.666667 0.500000
vt 0.500000 1.000000
vt 0.500000 0.500000
vt 0.333333 1.000000
vt 0.333333 0.500000
vt 0.166667 1.000000
vt 0.166667 0.500000
vt -0.000000 1.000000
vt -0.000000 0.500000
vt 0.000000 0.000000
vt 0.000000 0.000000
vt 0.000000 0.000000
vt 0.000000 0.000000
vt 0.000000 0.000000
vt 0.000000 0.000000
vn -0.3031 -0.1750 -0.9367
vn 0.4851 -0.2801 -0.8284
vn 0.0000 0.0000 1.0000
vn 0.3031 -0.1750 -0.9367
vn -0.0000 -0.4722 -0.8815
vn -0.4851 -0.2801 -0.8284
vn 0.5000 0.8660 0.0000
vn 1.0000 -0.0000 -0.0000
vn 0.5000 -0.8660 0.0000
vn -0.5000 -0.8660 0.0000
vn -1.0000 0.0000 0.0000
vn -0.5000 0.8660 0.0000
g Light_Holder.002_Cylinder.009_Black.006
usemtl Black.006
s off
f 131/191/63 129/192/63 141/193/63 143/194/63
f 127/195/64 125/196/64 137/197/64 138/198/64
f 136/199/65 126/200/65 140/201/65 148/202/65
f 133/203/66 131/191/66 143/194/66 145/204/66
f 135/205/67 133/203/67 145/204/67 147/206/67
f 125/196/68 135/205/68 147/206/68 137/197/68
f 131/191/69 133/203/69 134/207/69 132/208/69
f 137/209/69 140/210/69 139/211/69 138/212/69
f 138/212/70 139/211/70 142/213/70 141/214/70
f 141/214/71 142/213/71 144/215/71 143/216/71
f 143/216/72 144/215/72 146/217/72 145/218/72
f 145/218/73 146/217/73 148/219/73 147/220/73
f 147/220/74 148/219/74 140/221/74 137/222/74
f 134/207/65 136/199/65 148/202/65 146/223/65
f 129/192/67 127/195/67 138/198/67 141/193/67
f 132/208/65 134/207/65 146/223/65 144/224/65
f 126/200/65 128/225/65 139/226/65 140/201/65
f 130/227/65 132/208/65 144/224/65 142/228/65
f 128/225/65 130/227/65 142/228/65 139/226/65
f 133/203/70 135/205/70 136/199/70 134/207/70
f 135/205/71 125/196/71 126/200/71 136/199/71
f 125/196/72 127/195/72 128/225/72 126/200/72
f 127/195/73 129/192/73 130/227/73 128/225/73
f 129/192/74 131/191/74 132/208/74 130/227/74
o Green_Icosphere
v 0.000000 12.620830 -1.102643
v 0.348866 12.887341 -0.970834
v -0.431225 12.887341 -1.102643
v -0.133252 12.887341 -1.315915
v 0.348866 12.887341 -1.234451
v -0.348866 13.318568 -0.970834
v -0.348866 13.318568 -1.234451
v 0.133252 13.318568 -1.315915
v 0.431225 13.318568 -1.102643
v 0.000000 13.585080 -1.102643
vt 0.727272 0.157461
vt 0.636363 0.000000
vt 0.545454 0.157461
vt 0.272727 0.000000
vt 0.181818 0.157461
vt 0.363636 0.157461
vt 0.454545 0.000000
vt 0.636363 0.314921
vt 0.272727 0.314921
vt 0.454545 0.314921
vt 0.090909 0.314921
vt 0.181818 0.472382
vt 0.363636 0.472382
vt 0.545454 0.472382
vn 0.6071 -0.7947 0.0000
vn -0.4237 -0.6856 -0.5920
vn 0.1361 -0.5766 -0.8056
vn 0.9822 -0.1876 0.0000
vn -0.5766 -0.1361 -0.8056
vn 0.1657 -0.1024 -0.9808
vn -0.9822 0.1876 0.0000
vn -0.1657 0.1024 -0.9808
vn 0.5766 0.1361 -0.8056
vn -0.6071 0.7947 0.0000
vn -0.1361 0.5766 -0.8056
vn 0.4237 0.6856 -0.5920
g Green_Icosphere_Green
usemtl Green
s off
f 150/229/75 149/230/75 153/231/75
f 149/232/76 151/233/76 152/234/76
f 149/235/77 152/234/77 153/231/77
f 150/229/78 153/231/78 157/236/78
f 152/234/79 151/233/79 155/237/79
f 153/231/80 152/234/80 156/238/80
f 151/233/81 154/239/81 155/237/81
f 152/234/82 155/237/82 156/238/82
f 153/231/83 156/238/83 157/236/83
f 155/237/84 154/239/84 158/240/84
f 156/238/85 155/237/85 158/241/85
f 157/236/86 156/238/86 158/242/86
o Amber_Icosphere.001
v 0.000000 13.811989 -1.102643
v 0.348866 14.078501 -0.970834
v -0.431225 14.078501 -1.102643
v -0.133252 14.078501 -1.315915
v 0.348866 14.078501 -1.234451
v -0.348866 14.509727 -0.970834
v -0.348866 14.509727 -1.234451
v 0.133252 14.509727 -1.315915
v 0.431225 14.509727 -1.102643
v 0.000000 14.776239 -1.102643
vt 0.727272 0.157461
vt 0.636363 0.000000
vt 0.545454 0.157461
vt 0.272727 0.000000
vt 0.181818 0.157461
vt 0.363636 0.157461
vt 0.454545 0.000000
vt 0.636363 0.314921
vt 0.272727 0.314921
vt 0.454545 0.314921
vt 0.090909 0.314921
vt 0.181818 0.472382
vt 0.363636 0.472382
vt 0.545454 0.472382
vn 0.6071 -0.7947 0.0000
vn -0.4237 -0.6856 -0.5920
vn 0.1361 -0.5766 -0.8056
vn 0.9822 -0.1876 0.0000
vn -0.5766 -0.1361 -0.8056
vn 0.1657 -0.1024 -0.9808
vn -0.9822 0.1876 0.0000
vn -0.1657 0.1024 -0.9808
vn 0.5766 0.1361 -0.8056
vn -0.6071 0.7947 0.0000
vn -0.1361 0.5766 -0.8056
vn 0.4237 0.6856 -0.5920
g Amber_Icosphere.001_Amber
usemtl Amber
s off
f 160/243/87 159/244/87 163/245/87
f 159/246/88 161/247/88 162/248/88
f 159/249/89 162/248/89 163/245/89
f 160/243/90 163/245/90 167/250/90
f 162/248/91 161/247/91 165/251/91
f 163/245/92 162/248/92 166/252/92
f 161/247/93 164/253/93 165/251/93
f 162/248/94 165/251/94 166/252/94
f 163/245/95 166/252/95 167/250/95
f 165/251/96 164/253/96 168/254/96
f 166/252/97 165/251/97 168/255/97
f 167/250/98 166/252/98 168/256/98
o Red_Icosphere.002
v 0.000000 15.021132 -1.102643
v 0.348866 15.287643 -0.970834
v -0.431225 15.287643 -1.102643
v -0.133252 15.287643 -1.315915
v 0.348866 15.287643 -1.234451
v -0.348866 15.718870 -0.970834
v -0.348866 15.718870 -1.234451
v 0.133252 15.718870 -1.315915
v 0.431225 15.718870 -1.102643
v 0.000000 15.985382 -1.102643
vt 0.727272 0.157461
vt 0.636363 0.000000
vt 0.545454 0.157461
vt 0.272727 0.000000
vt 0.181818 0.157461
vt 0.363636 0.157461
vt 0.454545 0.000000
vt 0.636363 0.314921
vt 0.272727 0.314921
vt 0.454545 0.314921
vt 0.090909 0.314921
vt 0.181818 0.472382
vt 0.363636 0.472382
vt 0.545454 0.472382
vn 0.6071 -0.7947 0.0000
vn -0.4237 -0.6856 -0.5920
vn 0.1361 -0.5766 -0.8056
vn 0.9822 -0.1876 0.0000
vn -0.5766 -0.1361 -0.8056
vn 0.1657 -0.1024 -0.9808
vn -0.9822 0.1876 0.0000
vn -0.1657 0.1024 -0.9808
vn 0.5766 0.1361 -0.8056
vn -0.6071 0.7947 0.0000
vn -0.1361 0.5766 -0.8056
vn 0.4237 0.6856 -0.5920
g Red_Icosphere.002_Red
usemtl Red
s off
f 170/257/99 169/258/99 173/259/99
f 169/260/100 171/261/100 172/262/100
f 169/263/101 172/262/101 173/259/101
f 170/257/102 173/259/102 177/264/102
f 172/262/103 171/261/103 175/265/103
f 173/259/104 172/262/104 176/266/104
f 171/261/105 174/267/105 175/265/105
f 172/262/106 175/265/106 176/266/106
f 173/259/107 176/266/107 177/264/107
f 175/265/108 174/267/108 178/268/108
f 176/266/109 175/265/109 178/269/109
f 177/264/110 176/266/110 178/270/110
