# Blender v2.80 (sub 47) OBJ File: 'Roads.blend'
# www.blender.org
mtllib M Straight.mtl
o M_Stright_Ground_Plane.000
v -2.676032 -0.000013 52.619568
v -2.676032 0.000013 -52.619568
v -0.843136 5.000012 -52.619568
v -0.843136 4.999988 52.619568
v -2.676032 -0.000013 52.619568
v -2.676032 0.000013 -52.619568
v -2.676032 -0.000013 52.619568
v -2.676032 0.000013 -52.619568
v -17.676033 -0.000013 52.619568
v -17.676033 0.000013 -52.619568
v -19.676033 -0.000013 52.619568
v -19.676033 0.000013 -52.619568
v -34.676033 -0.000013 52.619568
v -34.676033 0.000013 -52.619568
v -36.676033 -0.000013 52.619568
v -36.676033 0.000013 -52.619568
v -50.676033 -0.000013 52.619568
v -50.676033 0.000013 -52.619568
v -50.676033 5.000012 -52.619568
v -50.676033 4.999988 52.619568
v -52.676033 5.000012 -52.619568
v -52.676033 4.999988 52.619568
v -52.676033 0.000013 -52.619568
v -52.676033 -0.000013 52.619568
v 2.676032 -0.000013 52.619568
v 2.676032 0.000013 -52.619568
v 0.000000 4.999988 52.619568
v 0.000000 5.000012 -52.619568
v 0.843136 5.000012 -52.619568
v 0.843136 4.999988 52.619568
v 2.676032 -0.000013 52.619568
v 2.676032 0.000013 -52.619568
v 2.676032 -0.000013 52.619568
v 2.676032 0.000013 -52.619568
v 17.676033 -0.000013 52.619568
v 17.676033 0.000013 -52.619568
v 19.676033 -0.000013 52.619568
v 19.676033 0.000013 -52.619568
v 34.676033 -0.000013 52.619568
v 34.676033 0.000013 -52.619568
v 36.676033 -0.000013 52.619568
v 36.676033 0.000013 -52.619568
v 50.676033 -0.000013 52.619568
v 50.676033 0.000013 -52.619568
v 50.676033 5.000012 -52.619568
v 50.676033 4.999988 52.619568
v 52.676033 5.000012 -52.619568
v 52.676033 4.999988 52.619568
v 52.676033 0.000013 -52.619568
v 52.676033 -0.000013 52.619568
vt 0.333333 1.000000
vt 0.333333 1.000000
vt 0.333333 0.000000
vt 0.333333 0.000000
vt 0.333333 0.000000
vt 0.333333 1.000000
vt 0.333333 1.000000
vt 0.333333 0.000000
vt 0.333333 0.000000
vt 0.333333 1.000000
vt 0.333333 1.000000
vt 0.333333 0.000000
vt 0.333333 1.000000
vt 0.333333 0.000000
vt 0.333333 0.000000
vt 0.333333 1.000000
vt 0.333333 0.000000
vt 0.333333 0.000000
vt 0.333333 1.000000
vt 0.333333 1.000000
vt 0.333333 0.000000
vt 0.333333 0.000000
vt 0.333333 1.000000
vt 0.333333 1.000000
vt 0.416667 0.000000
vt 0.500000 0.000000
vt 0.500000 1.000000
vt 0.416667 1.000000
vt 0.333333 0.000000
vt 0.333333 1.000000
vt 0.333333 1.000000
vt 0.333333 0.000000
vt 0.333333 1.000000
vt 0.333333 0.000000
vt 0.333333 1.000000
vt 0.333333 0.000000
vt 0.333333 1.000000
vt 0.333333 0.000000
vt 0.416667 0.000000
vt 0.416667 1.000000
vt 0.333333 0.000000
vt 0.333333 1.000000
vt 0.333333 0.000000
vt 0.333333 1.000000
vt 0.333333 0.000000
vt 0.333333 1.000000
vt 0.333333 0.000000
vt 0.333333 1.000000
vt 0.333333 0.000000
vt 0.333333 1.000000
vn 0.0000 0.7071 0.7071
vn 0.0000 1.0000 0.0000
vn 0.5774 0.5774 -0.5774
vn 0.5774 0.5774 0.5774
vn -0.5774 0.5774 0.5774
vn -0.5774 0.5774 -0.5774
vn -0.4589 0.6570 0.5981
vn 0.0000 0.7071 -0.7071
vn -0.4589 0.6570 -0.5981
vn -0.4606 0.1688 0.8714
vn -0.9163 0.3359 0.2183
vn 0.0000 0.0000 1.0000
vn -0.7071 0.0000 -0.7071
vn -0.7071 0.0000 0.7071
vn 0.4589 0.6570 0.5981
vn 0.4589 0.6570 -0.5981
vn 0.4606 0.1688 0.8714
vn 0.9163 0.3359 0.2183
vn 0.7071 0.0000 0.7071
vn 0.7071 0.0000 -0.7071
g M_Stright_Ground_Plane.000_Road.004
usemtl Road.004
s 1
f 8/1/1 10/2/2 9/3/2 7/4/1
f 11/5/2 12/6/2 14/7/2 13/8/2
f 15/9/2 16/10/2 18/11/3 17/12/4
f 34/13/1 33/14/1 35/15/2 36/16/2
f 37/17/2 39/18/2 40/19/2 38/20/2
f 41/21/2 43/22/5 44/23/6 42/24/2
g M_Stright_Ground_Plane.000_Line.004
usemtl Line.004
f 9/3/2 10/2/2 12/6/2 11/5/2
f 13/8/2 14/7/2 16/10/2 15/9/2
f 35/15/2 37/17/2 38/20/2 36/16/2
f 39/18/2 41/21/2 42/24/2 40/19/2
g M_Stright_Ground_Plane.000_Path.004
usemtl Path.004
f 4/25/7 27/26/1 28/27/8 3/28/9
f 1/29/10 4/25/7 3/28/9 2/30/11
f 1/29/10 2/30/11 6/31/12 5/32/12
f 5/32/12 6/31/12 8/1/1 7/4/1
f 17/12/4 18/11/3 19/33/3 20/34/4
f 20/34/4 19/33/3 21/35/6 22/36/5
f 22/36/5 21/35/6 23/37/13 24/38/14
f 20/34/4 22/36/5 24/38/14 17/12/4
f 18/11/3 23/37/13 21/35/6 19/33/3
f 30/39/15 29/40/16 28/27/8 27/26/1
f 25/41/17 26/42/18 29/40/16 30/39/15
f 25/41/17 31/43/12 32/44/12 26/42/18
f 31/43/12 33/14/1 34/13/1 32/44/12
f 43/22/5 46/45/5 45/46/6 44/23/6
f 46/45/5 48/47/4 47/48/3 45/46/6
f 48/47/4 50/49/19 49/50/20 47/48/3
f 46/45/5 43/22/5 50/49/19 48/47/4
f 44/23/6 45/46/6 47/48/3 49/50/20
f 2/30/11 3/28/9 28/27/8 29/40/16 26/42/18
f 1/29/10 25/41/17 30/39/15 27/26/1 4/25/7
