# Blender v2.80 (sub 46) OBJ File: 'Factory.blend'
# www.blender.org
mtllib Factory1.mtl
o Aircon_Cube.061
v 15.000000 39.000000 -2.096130
v 15.000000 54.000000 -2.096130
v 15.000000 39.000000 -37.000000
v 15.000000 54.000000 -37.000000
v 35.000000 39.000000 -2.096130
v 35.000000 54.000000 -2.096130
v 35.000000 39.000000 -37.000000
v 35.000000 54.000000 -37.000000
vt 0.375000 0.000000
vt 0.625000 0.000000
vt 0.625000 0.250000
vt 0.375000 0.250000
vt 0.625000 0.500000
vt 0.375000 0.500000
vt 0.625000 0.750000
vt 0.375000 0.750000
vt 0.625000 1.000000
vt 0.375000 1.000000
vt 0.875000 0.500000
vt 0.875000 0.750000
vn -1.0000 0.0000 0.0000
vn 0.0000 0.0000 -1.0000
vn 1.0000 0.0000 0.0000
vn 0.0000 0.0000 1.0000
vn 0.0000 1.0000 0.0000
g Aircon_Cube.061_None
usemtl None
s off
f 1/1/1 2/2/1 4/3/1 3/4/1
f 3/4/2 4/3/2 8/5/2 7/6/2
f 7/6/3 8/5/3 6/7/3 5/8/3
f 5/8/4 6/7/4 2/9/4 1/10/4
f 8/5/5 4/11/5 2/12/5 6/7/5
o Aircon.001_Cube.062
v -15.000000 39.000000 -2.096130
v -15.000000 54.000000 -2.096130
v -15.000000 39.000000 -37.000000
v -15.000000 54.000000 -37.000000
v 5.000000 39.000000 -2.096130
v 5.000000 54.000000 -2.096130
v 5.000000 39.000000 -37.000000
v 5.000000 54.000000 -37.000000
vt 0.375000 0.000000
vt 0.625000 0.000000
vt 0.625000 0.250000
vt 0.375000 0.250000
vt 0.625000 0.500000
vt 0.375000 0.500000
vt 0.625000 0.750000
vt 0.375000 0.750000
vt 0.625000 1.000000
vt 0.375000 1.000000
vt 0.875000 0.500000
vt 0.875000 0.750000
vn -1.0000 0.0000 0.0000
vn 0.0000 0.0000 -1.0000
vn 1.0000 0.0000 0.0000
vn 0.0000 0.0000 1.0000
vn 0.0000 1.0000 0.0000
g Aircon.001_Cube.062_None
usemtl None
s off
f 9/13/6 10/14/6 12/15/6 11/16/6
f 11/16/7 12/15/7 16/17/7 15/18/7
f 15/18/8 16/17/8 14/19/8 13/20/8
f 13/20/9 14/19/9 10/21/9 9/22/9
f 16/17/10 12/23/10 10/24/10 14/19/10
o Aircon.002_Cube.063
v -45.000000 39.000000 -2.096130
v -45.000000 54.000000 -2.096130
v -45.000000 39.000000 -37.000000
v -45.000000 54.000000 -37.000000
v -25.000000 39.000000 -2.096130
v -25.000000 54.000000 -2.096130
v -25.000000 39.000000 -37.000000
v -25.000000 54.000000 -37.000000
vt 0.375000 0.000000
vt 0.625000 0.000000
vt 0.625000 0.250000
vt 0.375000 0.250000
vt 0.625000 0.500000
vt 0.375000 0.500000
vt 0.625000 0.750000
vt 0.375000 0.750000
vt 0.625000 1.000000
vt 0.375000 1.000000
vt 0.875000 0.500000
vt 0.875000 0.750000
vn -1.0000 0.0000 0.0000
vn 0.0000 0.0000 -1.0000
vn 1.0000 0.0000 0.0000
vn 0.0000 0.0000 1.0000
vn 0.0000 1.0000 0.0000
g Aircon.002_Cube.063_None
usemtl None
s off
f 17/25/11 18/26/11 20/27/11 19/28/11
f 19/28/12 20/27/12 24/29/12 23/30/12
f 23/30/13 24/29/13 22/31/13 21/32/13
f 21/32/14 22/31/14 18/33/14 17/34/14
f 24/29/15 20/35/15 18/36/15 22/31/15
o Aircon.003_Cube.064
v -247.000000 39.000000 -2.096130
v -247.000000 54.000000 -2.096130
v -247.000000 39.000000 -37.000000
v -247.000000 54.000000 -37.000000
v -227.000000 39.000000 -2.096130
v -227.000000 54.000000 -2.096130
v -227.000000 39.000000 -37.000000
v -227.000000 54.000000 -37.000000
vt 0.375000 0.000000
vt 0.625000 0.000000
vt 0.625000 0.250000
vt 0.375000 0.250000
vt 0.625000 0.500000
vt 0.375000 0.500000
vt 0.625000 0.750000
vt 0.375000 0.750000
vt 0.625000 1.000000
vt 0.375000 1.000000
vt 0.875000 0.500000
vt 0.875000 0.750000
vn -1.0000 0.0000 0.0000
vn 0.0000 0.0000 -1.0000
vn 1.0000 0.0000 0.0000
vn 0.0000 0.0000 1.0000
vn 0.0000 1.0000 0.0000
g Aircon.003_Cube.064_Aircons
usemtl Aircons
s off
f 25/37/16 26/38/16 28/39/16 27/40/16
f 27/40/17 28/39/17 32/41/17 31/42/17
f 31/42/18 32/41/18 30/43/18 29/44/18
f 29/44/19 30/43/19 26/45/19 25/46/19
f 32/41/20 28/47/20 26/48/20 30/43/20
o Aircon.004_Cube.065
v -217.000000 39.000000 -2.096130
v -217.000000 54.000000 -2.096130
v -217.000000 39.000000 -37.000000
v -217.000000 54.000000 -37.000000
v -197.000000 39.000000 -2.096130
v -197.000000 54.000000 -2.096130
v -197.000000 39.000000 -37.000000
v -197.000000 54.000000 -37.000000
vt 0.375000 0.000000
vt 0.625000 0.000000
vt 0.625000 0.250000
vt 0.375000 0.250000
vt 0.625000 0.500000
vt 0.375000 0.500000
vt 0.625000 0.750000
vt 0.375000 0.750000
vt 0.625000 1.000000
vt 0.375000 1.000000
vt 0.875000 0.500000
vt 0.875000 0.750000
vn -1.0000 0.0000 0.0000
vn 0.0000 0.0000 -1.0000
vn 1.0000 0.0000 0.0000
vn 0.0000 0.0000 1.0000
vn 0.0000 1.0000 0.0000
g Aircon.004_Cube.065_None
usemtl None
s off
f 33/49/21 34/50/21 36/51/21 35/52/21
f 35/52/22 36/51/22 40/53/22 39/54/22
f 39/54/23 40/53/23 38/55/23 37/56/23
f 37/56/24 38/55/24 34/57/24 33/58/24
f 40/53/25 36/59/25 34/60/25 38/55/25
o Aircon.005_Cube.066
v -187.000000 39.000000 -2.096130
v -187.000000 54.000000 -2.096130
v -187.000000 39.000000 -37.000000
v -187.000000 54.000000 -37.000000
v -167.000000 39.000000 -2.096130
v -167.000000 54.000000 -2.096130
v -167.000000 39.000000 -37.000000
v -167.000000 54.000000 -37.000000
vt 0.375000 0.000000
vt 0.625000 0.000000
vt 0.625000 0.250000
vt 0.375000 0.250000
vt 0.625000 0.500000
vt 0.375000 0.500000
vt 0.625000 0.750000
vt 0.375000 0.750000
vt 0.625000 1.000000
vt 0.375000 1.000000
vt 0.875000 0.500000
vt 0.875000 0.750000
vn -1.0000 0.0000 0.0000
vn 0.0000 0.0000 -1.0000
vn 1.0000 0.0000 0.0000
vn 0.0000 0.0000 1.0000
vn 0.0000 1.0000 0.0000
g Aircon.005_Cube.066_None
usemtl None
s off
f 41/61/26 42/62/26 44/63/26 43/64/26
f 43/64/27 44/63/27 48/65/27 47/66/27
f 47/66/28 48/65/28 46/67/28 45/68/28
f 45/68/29 46/67/29 42/69/29 41/70/29
f 48/65/30 44/71/30 42/72/30 46/67/30
o Truck_Entrance_Cube.067
v -259.000000 1.000000 66.800003
v -259.000000 23.000000 66.800003
v -259.000000 1.000000 64.800003
v -259.000000 23.000000 64.800003
v -242.000000 1.000000 66.800003
v -242.000000 23.000000 66.800003
v -242.000000 1.000000 64.800003
v -242.000000 23.000000 64.800003
vt 0.375000 0.000000
vt 0.625000 0.000000
vt 0.625000 0.250000
vt 0.375000 0.250000
vt 0.375000 0.500000
vt 0.625000 0.500000
vt 0.625000 0.750000
vt 0.375000 0.750000
vt 0.625000 1.000000
vt 0.375000 1.000000
vt 0.875000 0.500000
vt 0.875000 0.750000
vn -1.0000 0.0000 0.0000
vn 1.0000 0.0000 0.0000
vn 0.0000 0.0000 1.0000
vn 0.0000 1.0000 0.0000
g Truck_Entrance_Cube.067_Truck_Entrance
usemtl Truck_Entrance
s off
f 49/73/31 50/74/31 52/75/31 51/76/31
f 55/77/32 56/78/32 54/79/32 53/80/32
f 53/80/33 54/79/33 50/81/33 49/82/33
f 56/78/34 52/83/34 50/84/34 54/79/34
o Truck_Entrance.001_Cube.068
v -239.000000 1.000000 66.800003
v -239.000000 23.000000 66.800003
v -239.000000 1.000000 64.800003
v -239.000000 23.000000 64.800003
v -222.000000 1.000000 66.800003
v -222.000000 23.000000 66.800003
v -222.000000 1.000000 64.800003
v -222.000000 23.000000 64.800003
vt 0.375000 0.000000
vt 0.625000 0.000000
vt 0.625000 0.250000
vt 0.375000 0.250000
vt 0.375000 0.500000
vt 0.625000 0.500000
vt 0.625000 0.750000
vt 0.375000 0.750000
vt 0.625000 1.000000
vt 0.375000 1.000000
vt 0.875000 0.500000
vt 0.875000 0.750000
vn -1.0000 0.0000 0.0000
vn 1.0000 0.0000 0.0000
vn 0.0000 0.0000 1.0000
vn 0.0000 1.0000 0.0000
g Truck_Entrance.001_Cube.068_None
usemtl None
s off
f 57/85/35 58/86/35 60/87/35 59/88/35
f 63/89/36 64/90/36 62/91/36 61/92/36
f 61/92/37 62/91/37 58/93/37 57/94/37
f 64/90/38 60/95/38 58/96/38 62/91/38
o Truck_Entrance.002_Cube.069
v -219.000000 1.000000 66.800003
v -219.000000 23.000000 66.800003
v -219.000000 1.000000 64.800003
v -219.000000 23.000000 64.800003
v -202.000000 1.000000 66.800003
v -202.000000 23.000000 66.800003
v -202.000000 1.000000 64.800003
v -202.000000 23.000000 64.800003
vt 0.375000 0.000000
vt 0.625000 0.000000
vt 0.625000 0.250000
vt 0.375000 0.250000
vt 0.375000 0.500000
vt 0.625000 0.500000
vt 0.625000 0.750000
vt 0.375000 0.750000
vt 0.625000 1.000000
vt 0.375000 1.000000
vt 0.875000 0.500000
vt 0.875000 0.750000
vn -1.0000 0.0000 0.0000
vn 1.0000 0.0000 0.0000
vn 0.0000 0.0000 1.0000
vn 0.0000 1.0000 0.0000
g Truck_Entrance.002_Cube.069_None
usemtl None
s off
f 65/97/39 66/98/39 68/99/39 67/100/39
f 71/101/40 72/102/40 70/103/40 69/104/40
f 69/104/41 70/103/41 66/105/41 65/106/41
f 72/102/42 68/107/42 66/108/42 70/103/42
o Truck_Entrance.005_Cube.072
v -199.000000 1.000000 66.800003
v -199.000000 23.000000 66.800003
v -199.000000 1.000000 64.800003
v -199.000000 23.000000 64.800003
v -182.000000 1.000000 66.800003
v -182.000000 23.000000 66.800003
v -182.000000 1.000000 64.800003
v -182.000000 23.000000 64.800003
vt 0.375000 0.000000
vt 0.625000 0.000000
vt 0.625000 0.250000
vt 0.375000 0.250000
vt 0.375000 0.500000
vt 0.625000 0.500000
vt 0.625000 0.750000
vt 0.375000 0.750000
vt 0.625000 1.000000
vt 0.375000 1.000000
vt 0.875000 0.500000
vt 0.875000 0.750000
vn -1.0000 0.0000 0.0000
vn 1.0000 0.0000 0.0000
vn 0.0000 0.0000 1.0000
vn 0.0000 1.0000 0.0000
g Truck_Entrance.005_Cube.072_None
usemtl None
s off
f 73/109/43 74/110/43 76/111/43 75/112/43
f 79/113/44 80/114/44 78/115/44 77/116/44
f 77/116/45 78/115/45 74/117/45 73/118/45
f 80/114/46 76/119/46 74/120/46 78/115/46
o Truck_Entrance.004_Cube.071
v -179.000000 1.000000 66.800003
v -179.000000 23.000000 66.800003
v -179.000000 1.000000 64.800003
v -179.000000 23.000000 64.800003
v -162.000000 1.000000 66.800003
v -162.000000 23.000000 66.800003
v -162.000000 1.000000 64.800003
v -162.000000 23.000000 64.800003
vt 0.375000 0.000000
vt 0.625000 0.000000
vt 0.625000 0.250000
vt 0.375000 0.250000
vt 0.375000 0.500000
vt 0.625000 0.500000
vt 0.625000 0.750000
vt 0.375000 0.750000
vt 0.625000 1.000000
vt 0.375000 1.000000
vt 0.875000 0.500000
vt 0.875000 0.750000
vn -1.0000 0.0000 0.0000
vn 1.0000 0.0000 0.0000
vn 0.0000 0.0000 1.0000
vn 0.0000 1.0000 0.0000
g Truck_Entrance.004_Cube.071_None
usemtl None
s off
f 81/121/47 82/122/47 84/123/47 83/124/47
f 87/125/48 88/126/48 86/127/48 85/128/48
f 85/128/49 86/127/49 82/129/49 81/130/49
f 88/126/50 84/131/50 82/132/50 86/127/50
o Truck_Entrance.003_Cube.070
v -159.000000 1.000000 66.800003
v -159.000000 23.000000 66.800003
v -159.000000 1.000000 64.800003
v -159.000000 23.000000 64.800003
v -142.000000 1.000000 66.800003
v -142.000000 23.000000 66.800003
v -142.000000 1.000000 64.800003
v -142.000000 23.000000 64.800003
vt 0.375000 0.000000
vt 0.625000 0.000000
vt 0.625000 0.250000
vt 0.375000 0.250000
vt 0.375000 0.500000
vt 0.625000 0.500000
vt 0.625000 0.750000
vt 0.375000 0.750000
vt 0.625000 1.000000
vt 0.375000 1.000000
vt 0.875000 0.500000
vt 0.875000 0.750000
vn -1.0000 0.0000 0.0000
vn 1.0000 0.0000 0.0000
vn 0.0000 0.0000 1.0000
vn 0.0000 1.0000 0.0000
g Truck_Entrance.003_Cube.070_None
usemtl None
s off
f 89/133/51 90/134/51 92/135/51 91/136/51
f 95/137/52 96/138/52 94/139/52 93/140/52
f 93/140/53 94/139/53 90/141/53 89/142/53
f 96/138/54 92/143/54 90/144/54 94/139/54
o Truck_Entrance.008_Cube.075
v -99.000000 1.000000 66.800003
v -99.000000 23.000000 66.800003
v -99.000000 1.000000 64.800003
v -99.000000 23.000000 64.800003
v -82.000000 1.000000 66.800003
v -82.000000 23.000000 66.800003
v -82.000000 1.000000 64.800003
v -82.000000 23.000000 64.800003
vt 0.375000 0.000000
vt 0.625000 0.000000
vt 0.625000 0.250000
vt 0.375000 0.250000
vt 0.375000 0.500000
vt 0.625000 0.500000
vt 0.625000 0.750000
vt 0.375000 0.750000
vt 0.625000 1.000000
vt 0.375000 1.000000
vt 0.875000 0.500000
vt 0.875000 0.750000
vn -1.0000 0.0000 0.0000
vn 1.0000 0.0000 0.0000
vn 0.0000 0.0000 1.0000
vn 0.0000 1.0000 0.0000
g Truck_Entrance.008_Cube.075_None
usemtl None
s off
f 97/145/55 98/146/55 100/147/55 99/148/55
f 103/149/56 104/150/56 102/151/56 101/152/56
f 101/152/57 102/151/57 98/153/57 97/154/57
f 104/150/58 100/155/58 98/156/58 102/151/58
o Truck_Entrance.007_Cube.074
v -119.000000 1.000000 66.800003
v -119.000000 23.000000 66.800003
v -119.000000 1.000000 64.800003
v -119.000000 23.000000 64.800003
v -102.000000 1.000000 66.800003
v -102.000000 23.000000 66.800003
v -102.000000 1.000000 64.800003
v -102.000000 23.000000 64.800003
vt 0.375000 0.000000
vt 0.625000 0.000000
vt 0.625000 0.250000
vt 0.375000 0.250000
vt 0.375000 0.500000
vt 0.625000 0.500000
vt 0.625000 0.750000
vt 0.375000 0.750000
vt 0.625000 1.000000
vt 0.375000 1.000000
vt 0.875000 0.500000
vt 0.875000 0.750000
vn -1.0000 0.0000 0.0000
vn 1.0000 0.0000 0.0000
vn 0.0000 0.0000 1.0000
vn 0.0000 1.0000 0.0000
g Truck_Entrance.007_Cube.074_None
usemtl None
s off
f 105/157/59 106/158/59 108/159/59 107/160/59
f 111/161/60 112/162/60 110/163/60 109/164/60
f 109/164/61 110/163/61 106/165/61 105/166/61
f 112/162/62 108/167/62 106/168/62 110/163/62
o Truck_Entrance.006_Cube.073
v -139.000000 1.000000 66.800003
v -139.000000 23.000000 66.800003
v -139.000000 1.000000 64.800003
v -139.000000 23.000000 64.800003
v -122.000000 1.000000 66.800003
v -122.000000 23.000000 66.800003
v -122.000000 1.000000 64.800003
v -122.000000 23.000000 64.800003
vt 0.375000 0.000000
vt 0.625000 0.000000
vt 0.625000 0.250000
vt 0.375000 0.250000
vt 0.375000 0.500000
vt 0.625000 0.500000
vt 0.625000 0.750000
vt 0.375000 0.750000
vt 0.625000 1.000000
vt 0.375000 1.000000
vt 0.875000 0.500000
vt 0.875000 0.750000
vn -1.0000 0.0000 0.0000
vn 1.0000 0.0000 0.0000
vn 0.0000 0.0000 1.0000
vn 0.0000 1.0000 0.0000
g Truck_Entrance.006_Cube.073_None
usemtl None
s off
f 113/169/63 114/170/63 116/171/63 115/172/63
f 119/173/64 120/174/64 118/175/64 117/176/64
f 117/176/65 118/175/65 114/177/65 113/178/65
f 120/174/66 116/179/66 114/180/66 118/175/66
o Truck_Entrance.011_Cube.078
v -79.000000 1.000000 66.800003
v -79.000000 23.000000 66.800003
v -79.000000 1.000000 64.800003
v -79.000000 23.000000 64.800003
v -62.000000 1.000000 66.800003
v -62.000000 23.000000 66.800003
v -62.000000 1.000000 64.800003
v -62.000000 23.000000 64.800003
vt 0.375000 0.000000
vt 0.625000 0.000000
vt 0.625000 0.250000
vt 0.375000 0.250000
vt 0.375000 0.500000
vt 0.625000 0.500000
vt 0.625000 0.750000
vt 0.375000 0.750000
vt 0.625000 1.000000
vt 0.375000 1.000000
vt 0.875000 0.500000
vt 0.875000 0.750000
vn -1.0000 0.0000 0.0000
vn 1.0000 0.0000 0.0000
vn 0.0000 0.0000 1.0000
vn 0.0000 1.0000 0.0000
g Truck_Entrance.011_Cube.078_None
usemtl None
s off
f 121/181/67 122/182/67 124/183/67 123/184/67
f 127/185/68 128/186/68 126/187/68 125/188/68
f 125/188/69 126/187/69 122/189/69 121/190/69
f 128/186/70 124/191/70 122/192/70 126/187/70
o Truck_Entrance.010_Cube.077
v -59.000000 1.000000 66.800003
v -59.000000 23.000000 66.800003
v -59.000000 1.000000 64.800003
v -59.000000 23.000000 64.800003
v -42.000000 1.000000 66.800003
v -42.000000 23.000000 66.800003
v -42.000000 1.000000 64.800003
v -42.000000 23.000000 64.800003
vt 0.375000 0.000000
vt 0.625000 0.000000
vt 0.625000 0.250000
vt 0.375000 0.250000
vt 0.375000 0.500000
vt 0.625000 0.500000
vt 0.625000 0.750000
vt 0.375000 0.750000
vt 0.625000 1.000000
vt 0.375000 1.000000
vt 0.875000 0.500000
vt 0.875000 0.750000
vn -1.0000 0.0000 0.0000
vn 1.0000 0.0000 0.0000
vn 0.0000 0.0000 1.0000
vn 0.0000 1.0000 0.0000
g Truck_Entrance.010_Cube.077_None
usemtl None
s off
f 129/193/71 130/194/71 132/195/71 131/196/71
f 135/197/72 136/198/72 134/199/72 133/200/72
f 133/200/73 134/199/73 130/201/73 129/202/73
f 136/198/74 132/203/74 130/204/74 134/199/74
o Truck_Entrance.009_Cube.076
v -39.000000 1.000000 66.800003
v -39.000000 23.000000 66.800003
v -39.000000 1.000000 64.800003
v -39.000000 23.000000 64.800003
v -22.000000 1.000000 66.800003
v -22.000000 23.000000 66.800003
v -22.000000 1.000000 64.800003
v -22.000000 23.000000 64.800003
vt 0.375000 0.000000
vt 0.625000 0.000000
vt 0.625000 0.250000
vt 0.375000 0.250000
vt 0.375000 0.500000
vt 0.625000 0.500000
vt 0.625000 0.750000
vt 0.375000 0.750000
vt 0.625000 1.000000
vt 0.375000 1.000000
vt 0.875000 0.500000
vt 0.875000 0.750000
vn -1.0000 0.0000 0.0000
vn 1.0000 0.0000 0.0000
vn 0.0000 0.0000 1.0000
vn 0.0000 1.0000 0.0000
g Truck_Entrance.009_Cube.076_None
usemtl None
s off
f 137/205/75 138/206/75 140/207/75 139/208/75
f 143/209/76 144/210/76 142/211/76 141/212/76
f 141/212/77 142/211/77 138/213/77 137/214/77
f 144/210/78 140/215/78 138/216/78 142/211/78
o Cube.003_Cube.079
v 10.500000 1.000000 116.800003
v 10.500000 27.000000 116.800003
v 10.500000 1.000000 64.800003
v 10.500000 27.000000 64.800003
v 52.500000 1.000000 116.800003
v 52.500000 27.000000 116.800003
v 52.500000 1.000000 64.800003
v 52.500000 27.000000 64.800003
vt 0.375000 0.000000
vt 0.625000 0.000000
vt 0.625000 0.250000
vt 0.375000 0.250000
vt 0.375000 0.500000
vt 0.625000 0.500000
vt 0.625000 0.750000
vt 0.375000 0.750000
vt 0.625000 1.000000
vt 0.375000 1.000000
vt 0.875000 0.500000
vt 0.875000 0.750000
vn -1.0000 0.0000 0.0000
vn 1.0000 0.0000 0.0000
vn 0.0000 0.0000 1.0000
vn 0.0000 1.0000 0.0000
g Cube.003_Cube.079_Buildings
usemtl Buildings
s off
f 145/217/79 146/218/79 148/219/79 147/220/79
f 151/221/80 152/222/80 150/223/80 149/224/80
f 149/224/81 150/223/81 146/225/81 145/226/81
f 152/222/82 148/227/82 146/228/82 150/223/82
o Building_Cube.006
v -263.100006 1.000000 64.800003
v -263.100006 37.000000 64.800003
v -263.100006 1.000000 -52.200001
v -263.100006 37.000000 -52.200001
v 52.500000 1.000000 64.800003
v 52.500000 37.000000 64.800003
v 52.500000 1.000000 -52.200001
v 52.500000 37.000000 -52.200001
v -254.581757 42.000000 56.281757
v -254.581757 42.000000 -43.681763
v 43.981758 42.000000 -43.681763
v 43.981758 42.000000 56.281757
v -263.100006 42.000000 64.800003
v -263.100006 42.000000 -52.200001
v 52.500000 42.000000 -52.200001
v 52.500000 42.000000 64.800003
v -254.581757 39.000000 56.281757
v -254.581757 39.000000 -43.681763
v 43.981758 39.000000 -43.681763
v 43.981758 39.000000 56.281757
vt 0.375000 0.000000
vt 0.625000 0.000000
vt 0.625000 0.250000
vt 0.375000 0.250000
vt 0.625000 0.500000
vt 0.375000 0.500000
vt 0.625000 0.750000
vt 0.375000 0.750000
vt 0.625000 1.000000
vt 0.375000 1.000000
vt 0.868252 0.731799
vt 0.631748 0.731799
vt 0.631748 0.731799
vt 0.868252 0.731799
vt 0.625000 0.500000
vt 0.625000 0.750000
vt 0.625000 0.000000
vt 0.625000 0.250000
vt 0.625000 1.000000
vt 0.868252 0.518201
vt 0.875000 0.500000
vt 0.875000 0.750000
vt 0.631748 0.518201
vt 0.631748 0.518201
vt 0.868252 0.518201
vn -1.0000 0.0000 0.0000
vn 0.0000 0.0000 -1.0000
vn 1.0000 0.0000 0.0000
vn 0.0000 0.0000 1.0000
vn 0.0000 1.0000 0.0000
g Building_Cube.006_None
usemtl None
s off
f 153/229/83 154/230/83 156/231/83 155/232/83
f 155/232/84 156/231/84 160/233/84 159/234/84
f 159/234/85 160/233/85 158/235/85 157/236/85
f 157/236/86 158/235/86 154/237/86 153/238/86
f 161/239/84 164/240/84 172/241/84 169/242/84
f 158/235/85 160/233/85 167/243/85 168/244/85
f 156/231/83 154/230/83 165/245/83 166/246/83
f 154/237/86 158/235/86 168/244/86 165/247/86
f 160/233/84 156/231/84 166/246/84 167/243/84
f 161/239/87 162/248/87 166/249/87 165/250/87
f 162/248/87 163/251/87 167/243/87 166/249/87
f 163/251/87 164/240/87 168/244/87 167/243/87
f 164/240/87 161/239/87 165/250/87 168/244/87
f 171/252/87 170/253/87 169/242/87 172/241/87
f 163/251/86 162/248/86 170/253/86 171/252/86
f 164/240/83 163/251/83 171/252/83 172/241/83
f 162/248/85 161/239/85 169/242/85 170/253/85
o Factory_Cube
v 52.507423 1.000000 -52.177845
v 52.507423 -1.000000 -52.177845
v 52.507423 1.000000 155.982986
v 52.507423 -1.000000 155.982986
v -263.136810 1.000000 -52.177845
v -263.136810 -1.000000 -52.177845
v -263.136810 1.000000 155.982986
v -263.136810 -1.000000 155.982986
vt 0.375000 0.000000
vt 0.625000 0.000000
vt 0.625000 0.250000
vt 0.375000 0.250000
vt 0.375000 0.250000
vt 0.625000 0.250000
vt 0.625000 0.500000
vt 0.375000 0.500000
vt 0.625000 0.750000
vt 0.375000 0.750000
vt 0.125000 0.500000
vt 0.375000 0.500000
vt 0.375000 0.750000
vt 0.125000 0.750000
vt 0.625000 0.500000
vt 0.875000 0.500000
vt 0.875000 0.750000
vt 0.625000 0.750000
vn 0.0000 1.0000 0.0000
vn 0.0000 0.0000 1.0000
vn -1.0000 0.0000 0.0000
vn 1.0000 0.0000 0.0000
vn 0.0000 0.0000 -1.0000
g Factory_Cube_Path
usemtl Path
s off
f 173/254/88 177/255/88 179/256/88 175/257/88
f 176/258/89 175/259/89 179/260/89 180/261/89
f 180/261/90 179/260/90 177/262/90 178/263/90
f 174/264/91 173/265/91 175/266/91 176/267/91
f 178/268/92 177/269/92 173/270/92 174/271/92
